<?xml version="1.0" encoding="utf-8"?>
<svg viewBox="1.4156 1.0919 135.6997 104.9374" xmlns="http://www.w3.org/2000/svg">
  <path d="m 0,0 c 0.332,0.096 0.664,0.277 0.996,0.277 6.236,0.002 12.473,-0.033 18.709,-0.011 0.791,0.002 1.169,-0.322 1.553,-0.938 4.756,-7.618 9.522,-15.23 14.322,-22.821 1.106,-1.748 2.329,-3.425 3.544,-5.101 1.754,-2.419 3.112,-5.034 3.57,-7.989 0.366,-2.353 -0.319,-4.596 -1.531,-6.615 -1.853,-3.087 -3.784,-6.126 -5.715,-9.165 -5.35,-8.419 -10.71,-16.832 -16.099,-25.227 -0.243,-0.378 -0.808,-0.78 -1.227,-0.783 -6.32,-0.048 -12.641,-0.033 -18.961,-0.022 -0.311,10e-4 -0.622,0.098 -1.023,0.165 2.313,3.47 4.56,6.818 6.783,10.181 6.438,9.74 12.863,19.489 19.309,29.222 0.381,0.575 0.341,0.985 -0.028,1.552 C 16.529,-25.474 8.877,-13.659 1.218,-1.849 0.861,-1.299 0.476,-0.766 0.104,-0.225 0.069,-0.15 0.035,-0.075 0,0" style="fill: rgb(255, 255, 255); fill-opacity: 1; fill-rule: nonzero; --darkreader-inline-fill: #e8e6e3; --darkreader-inline-stroke: none; stroke: rgb(0, 0, 0); stroke-width: 0.75px;" id="path40" data-darkreader-inline-fill="" data-darkreader-inline-stroke="" transform="matrix(1.3333332538604736, 0, 0, -1.3333332538604736, 39.180621037048695, 1.461321292877983)"/>
  <path d="m 0,0 c 0,-8.666 -0.019,-17.332 0.024,-25.997 0.005,-1.072 -0.241,-1.411 -1.369,-1.399 -5.074,0.055 -10.15,0.035 -15.225,-0.023 -1.031,-0.012 -1.225,0.356 -1.224,1.299 0.019,16.295 0.008,32.59 -0.015,48.884 -0.002,0.827 0.19,1.248 1.108,1.429 5.305,1.042 10.595,2.167 15.899,3.219 0.233,0.046 0.66,-0.295 0.805,-0.56 0.14,-0.257 0.033,-0.647 0.033,-0.979 0,-8.624 0,-17.249 0,-25.873 z" style="fill: rgb(255, 255, 255); fill-opacity: 1; fill-rule: nonzero; --darkreader-inline-fill: #e8e6e3; --darkreader-inline-stroke: none; stroke: rgb(0, 0, 0); stroke-width: 0.75px;" id="path60" data-darkreader-inline-fill="" data-darkreader-inline-stroke="" transform="matrix(1.3333332538604736, 0, 0, -1.3333332538604736, 25.16093803479634, 69.47024871709436)"/>
  <path d="m 0,0 c 7.27,-11.285 14.453,-22.434 21.733,-33.735 -0.455,-0.04 -0.798,-0.097 -1.141,-0.097 -5.987,0 -11.975,0.035 -17.961,-0.013 -1.135,-0.009 -1.863,0.345 -2.464,1.287 -3.413,5.345 -6.872,10.661 -10.273,16.013 -0.213,0.336 -0.264,1.022 -0.062,1.333 3.18,4.9 6.414,9.767 9.641,14.638 0.111,0.167 0.273,0.3 0.527,0.574" style="fill: rgb(234, 62, 40); fill-opacity: 1; fill-rule: nonzero; --darkreader-inline-fill: #ec4e3a; --darkreader-inline-stroke: none; stroke: rgb(0, 0, 0); stroke-width: 0.75px;" id="path68" data-darkreader-inline-fill="" data-darkreader-inline-stroke="" transform="matrix(1.3333332538604736, 0, 0, -1.3333332538604736, 108.13797369770327, 60.84691752535582)"/>
  <path d="m 0,0 c -0.466,0.571 -0.847,0.994 -1.179,1.452 -2.917,4.029 -5.794,8.086 -8.759,12.079 -0.672,0.905 -0.292,1.541 0.147,2.239 2.272,3.612 4.562,7.212 6.845,10.817 0.421,0.664 0.932,1.291 1.241,2.004 0.556,1.285 1.519,1.521 2.802,1.51 5.86,-0.05 11.72,-0.024 17.58,-0.031 0.273,0 0.547,-0.047 1.043,-0.093 C 13.112,19.932 6.603,10.038 0,0" style="fill: rgb(234, 62, 40); fill-opacity: 1; fill-rule: nonzero; --darkreader-inline-fill: #ec4e3a; --darkreader-inline-stroke: none; stroke: rgb(0, 0, 0); stroke-width: 0.75px;" id="path72" data-darkreader-inline-fill="" data-darkreader-inline-stroke="" transform="matrix(1.3333332538604736, 0, 0, -1.3333332538604736, 107.97399258768564, 41.25290420757301)"/>
  <path d="M 0 0 C 0.068 -0.144 0.195 -0.287 0.195 -0.431 C 0.206 -4.366 0.203 -8.302 0.203 -12.348 C -0.125 -12.393 -0.437 -12.474 -0.749 -12.474 C -5.864 -12.482 -10.98 -12.45 -16.094 -12.503 C -17.201 -12.515 -17.528 -12.176 -17.507 -11.088 C -17.438 -7.484 -17.462 -3.878 -17.451 -0.272 C -17.295 -0.124 -17.139 0.024 -16.983 0.172 C -16.739 0.173 -16.495 0.174 -16.251 0.175 C -16.162 0.175 -16.073 0.175 -15.984 0.175 C -15.738 0.172 -15.492 0.169 -15.246 0.167 C -14.888 0.104 -4.724 -0.007 0 0" style="fill: rgb(235, 62, 40); fill-opacity: 1; fill-rule: nonzero; --darkreader-inline-fill: #ed4e3a; --darkreader-inline-stroke: none; stroke: rgb(0, 0, 0); stroke-width: 0.75px;" id="path76" data-darkreader-inline-fill="" data-darkreader-inline-stroke="" transform="matrix(1.3333332538604736, 0, 0, -1.3333332538604736, 24.844277490519747, 1.4379855195293203)"/>
</svg>