<?xml version="1.0" encoding="utf-8"?>
<svg viewBox="1.4156 -0.2074 708.6997 107.6965" xmlns="http://www.w3.org/2000/svg">
  <g id="g22" transform="matrix(1.3333332538604736, 0, 0, -1.3333332538604736, 393.7588876629525, 18.020788893096324)">
    <path d="m 0,0 c -3.068,-1.811 -5.776,-3.404 -8.479,-5.007 -2.068,-1.226 -4.149,-2.433 -6.182,-3.715 -0.59,-0.372 -0.89,-0.259 -1.368,0.161 -3.412,3.001 -7.288,5.268 -11.783,6.019 -13.293,2.221 -24.227,-4.699 -28.716,-16.149 -1.114,-2.841 -1.708,-5.821 -1.474,-8.838 0.491,-6.319 3.084,-11.737 7.603,-16.222 3.706,-3.677 8.117,-6.319 13.222,-7.155 9.334,-1.529 17.179,1.567 23.386,8.695 0.264,0.303 0.38,0.803 0.413,1.223 0.096,1.225 0.151,2.457 0.151,3.686 0,0.986 -0.641,1.202 -1.533,1.196 -4.451,-0.03 -8.902,-0.019 -13.353,-0.021 -0.199,0 -0.399,0.018 -0.7,0.033 v 14.331 c 10.604,0.125 21.178,0.25 31.906,0.376 0.023,-0.461 0.059,-0.855 0.06,-1.248 0.012,-8.21 0.047,-16.42 -0.011,-24.63 -0.007,-0.918 -0.335,-1.988 -0.875,-2.725 -5.361,-7.306 -12.538,-12.062 -21.169,-14.719 -3.158,-0.972 -6.375,-1.63 -9.687,-1.74 -2.895,-0.097 -5.817,-0.454 -8.682,-0.198 -9.335,0.834 -17.741,4.116 -24.935,10.204 -5.009,4.239 -8.62,9.497 -10.964,15.599 -1.238,3.222 -2.268,6.527 -2.335,10.019 -0.066,3.49 -0.462,7.052 0.078,10.459 1.555,9.827 6.171,18.05 13.969,24.425 4.399,3.596 9.38,6.101 14.757,7.738 2.861,0.87 5.907,1.171 8.889,1.594 1.669,0.237 3.381,0.311 5.068,0.269 9.911,-0.251 19.173,-2.601 27.178,-8.72 C -3.671,3.492 -1.985,1.775 0,0" style="fill: rgb(255, 255, 255); fill-opacity: 1; fill-rule: nonzero; stroke: none; --darkreader-inline-fill: #e8e6e3; --darkreader-inline-stroke: none;" id="path24" data-darkreader-inline-fill="" data-darkreader-inline-stroke=""/>
  </g>
  <g id="g26" transform="matrix(1.3333332538604736, 0, 0, -1.3333332538604736, 151.660818597029, 90.84437260585764)">
    <path d="M 0,0 C 2.234,4.675 4.457,9.328 6.754,14.134 7.156,13.87 7.611,13.619 8.012,13.301 13.01,9.334 18.5,6.258 24.584,4.296 c 3.273,-1.056 6.6,-1.953 10.095,-1.687 2.102,0.159 4.165,0.495 6.096,1.475 4.833,2.455 4.728,9.124 1.21,11.729 -2.061,1.527 -4.447,2.73 -6.849,3.661 -3.158,1.223 -6.533,1.882 -9.712,3.062 -3.812,1.414 -7.669,2.84 -11.231,4.767 -5.522,2.986 -8.647,7.808 -9.512,14.081 -1.455,10.555 3.483,19.516 13.335,23.881 3.583,1.588 7.324,2.668 11.276,2.75 3.291,0.069 6.608,0.262 9.872,-0.043 4.445,-0.414 8.89,-1.104 13.034,-2.933 3.161,-1.395 6.285,-2.87 9.432,-4.295 1.154,-0.523 1.253,-1.285 0.744,-2.364 -1.904,-4.036 -3.782,-8.085 -5.62,-12.152 -0.385,-0.852 -0.72,-1.013 -1.562,-0.511 -5.33,3.179 -11.086,5.363 -17.126,6.677 -2.62,0.57 -5.386,0.671 -8.083,0.644 -3.199,-0.031 -5.836,-2.212 -6.627,-5.111 -0.562,-2.056 -0.045,-4.016 1.409,-5.435 1.425,-1.39 3.08,-2.76 4.895,-3.497 4.467,-1.814 9.088,-3.247 13.639,-4.855 4.918,-1.738 9.826,-3.466 13.79,-7.09 C 60.664,23.781 62.6,19.793 63.161,15.004 63.534,11.819 63.539,8.66 62.766,5.583 60.614,-2.976 54.673,-7.892 46.575,-10.532 40.999,-12.35 35.185,-12.82 29.417,-12.263 19.065,-11.263 9.682,-7.534 1.402,-1.181 0.975,-0.853 0.55,-0.523 0.126,-0.191 0.095,-0.167 0.08,-0.124 0,0" style="fill: rgb(255, 255, 255); fill-opacity: 1; fill-rule: nonzero; stroke: none; --darkreader-inline-fill: #e8e6e3; --darkreader-inline-stroke: none;" id="path28" data-darkreader-inline-fill="" data-darkreader-inline-stroke=""/>
  </g>
  <g id="g30" transform="matrix(1.3333332538604736, 0, 0, -1.3333332538604736, 136.64094237639802, 106.01118078387663)">
    <path d="m 0,0 c -0.694,0 -1.132,0.001 -1.571,0 -5.115,-0.007 -10.23,0.011 -15.345,-0.045 -0.949,-0.011 -1.504,0.283 -2.021,1.07 -10.063,15.289 -20.151,30.561 -30.236,45.836 -0.73,1.105 -1.464,2.209 -2.217,3.299 -0.122,0.176 -0.353,0.277 -0.717,0.551 V 0.022 c -1.112,0 -2.097,0 -3.083,-10e-4 -4.075,-0.001 -8.151,0.007 -12.226,-0.012 -0.736,-0.003 -1.099,0.113 -1.098,1.019 0.038,24.414 0.041,48.828 0.049,73.242 0,1.16 0.04,2.323 -0.026,3.48 -0.042,0.739 0.24,0.925 0.927,0.922 4.782,-0.021 9.564,0.001 14.346,-0.041 0.363,-0.003 0.858,-0.297 1.066,-0.607 11.157,-16.6 22.289,-33.217 33.425,-49.83 C -12.732,19.249 -6.732,10.308 -0.74,1.361 -0.501,1.004 -0.327,0.605 0,0" style="fill: rgb(255, 255, 255); fill-opacity: 1; fill-rule: nonzero; stroke: none; --darkreader-inline-fill: #e8e6e3; --darkreader-inline-stroke: none;" id="path32" data-darkreader-inline-fill="" data-darkreader-inline-stroke=""/>
  </g>
  <g id="g34" transform="matrix(1.3333332538604736, 0, 0, -1.3333332538604736, 454.1500787248151, 64.5950455571583)">
    <path d="M 0,0 C -0.157,0.394 -0.495,0.814 -0.442,1.177 0,4.192 0.52,7.196 1.002,10.206 c 0.188,1.171 0.25,2.373 0.56,3.509 0.1,0.365 0.808,0.8 1.241,0.803 5.781,0.047 11.563,0.071 17.343,-0.02 1.309,-0.021 1.515,0.471 1.511,1.569 -0.033,10.198 -0.033,20.396 -0.043,30.594 0,0.243 10e-4,0.485 10e-4,0.842 H 39.131 V -31.043 H 21.726 c 0.007,0.094 -0.037,0.143 -0.132,0.147 0.014,3.641 0.031,7.282 0.04,10.924 0.013,6.129 0.021,12.257 0.032,18.386 0,0.488 0,0.975 0,1.35 C 21.444,-0.077 21.38,0.01 21.315,0.01 14.297,0.006 7.279,-0.005 0.261,-0.015 0.174,-0.01 0.087,-0.005 0,0" style="fill: rgb(255, 255, 255); fill-opacity: 1; fill-rule: nonzero; stroke: none; --darkreader-inline-fill: #e8e6e3; --darkreader-inline-stroke: none;" id="path36" data-darkreader-inline-fill="" data-darkreader-inline-stroke=""/>
  </g>
  <g id="g38" transform="matrix(1.3333332538604736, 0, 0, -1.3333332538604736, 612.1805868835871, 1.4613212928780115)">
    <path d="m 0,0 c 0.332,0.096 0.664,0.277 0.996,0.277 6.236,0.002 12.473,-0.033 18.709,-0.011 0.791,0.002 1.169,-0.322 1.553,-0.938 4.756,-7.618 9.522,-15.23 14.322,-22.821 1.106,-1.748 2.329,-3.425 3.544,-5.101 1.754,-2.419 3.112,-5.034 3.57,-7.989 0.366,-2.353 -0.319,-4.596 -1.531,-6.615 -1.853,-3.087 -3.784,-6.126 -5.715,-9.165 -5.35,-8.419 -10.71,-16.832 -16.099,-25.227 -0.243,-0.378 -0.808,-0.78 -1.227,-0.783 -6.32,-0.048 -12.641,-0.033 -18.961,-0.022 -0.311,10e-4 -0.622,0.098 -1.023,0.165 2.313,3.47 4.56,6.818 6.783,10.181 6.438,9.74 12.863,19.489 19.309,29.222 0.381,0.575 0.341,0.985 -0.028,1.552 C 16.529,-25.474 8.877,-13.659 1.218,-1.849 0.861,-1.299 0.476,-0.766 0.104,-0.225 0.069,-0.15 0.035,-0.075 0,0" style="fill: rgb(255, 255, 255); fill-opacity: 1; fill-rule: nonzero; stroke: none; --darkreader-inline-fill: #e8e6e3; --darkreader-inline-stroke: none;" id="path40" data-darkreader-inline-fill="" data-darkreader-inline-stroke=""/>
  </g>
  <g id="g42" transform="matrix(1.3333332538604736, 0, 0, -1.3333332538604736, 276.63440327041826, 1.4942599302376038)">
    <path d="m 0,0 c 0.015,-0.911 0.044,-1.821 0.044,-2.732 0.007,-24.748 0.012,-49.496 0.013,-74.244 0,-0.441 -0.046,-0.882 -0.074,-1.378 h -17.505 c -0.055,0.242 -0.151,0.472 -0.151,0.701 10e-4,25.411 0.01,50.822 0.018,76.233 0,0.166 0.06,0.353 0.003,0.494 -0.497,1.241 0.29,1.239 1.152,1.237 4.16,-0.005 8.319,0.015 12.478,0.007 C -2.738,0.315 -1.454,0.252 -0.169,0.217 -0.113,0.145 -0.056,0.072 0,0" style="fill: rgb(255, 255, 255); fill-opacity: 1; fill-rule: nonzero; stroke: none; --darkreader-inline-fill: #e8e6e3; --darkreader-inline-stroke: none;" id="path44" data-darkreader-inline-fill="" data-darkreader-inline-stroke=""/>
  </g>
  <g id="g46" transform="matrix(1.3333332538604736, 0, 0, -1.3333332538604736, 438.9743390694639, 1.827857729364041)">
    <path d="m 0,0 c -0.01,-21.342 -0.023,-42.684 -0.029,-64.025 -0.002,-4.393 0.021,-8.785 0.024,-13.178 0.001,-0.283 -0.075,-0.567 -0.115,-0.851 -0.078,-0.03 -0.155,-0.06 -0.232,-0.091 -5.486,0.007 -10.971,0.03 -16.456,0.004 -0.784,-0.003 -1.074,0.133 -1.074,1.005 0.024,23.652 0.017,47.304 0.015,70.956 0,2.151 0,4.302 0,6.411 0.209,0.12 0.313,0.232 0.418,0.232 5.772,0.016 11.544,0.022 17.315,0.029 C -0.089,0.328 -0.045,0.164 0,0" style="fill: rgb(255, 255, 255); fill-opacity: 1; fill-rule: nonzero; stroke: none; --darkreader-inline-fill: #e8e6e3; --darkreader-inline-stroke: none;" id="path48" data-darkreader-inline-fill="" data-darkreader-inline-stroke=""/>
  </g>
  <g id="g50" transform="matrix(1.3333332538604736, 0, 0, -1.3333332538604736, 572.3632878245916, 105.70411293108555)">
    <path d="m 0,0 c -0.14,-0.069 -0.281,-0.197 -0.421,-0.198 -5.532,-0.02 -11.063,-0.029 -16.594,-0.035 -0.119,0 -0.237,0.048 -0.433,0.091 -0.022,0.309 -0.064,0.626 -0.065,0.944 -0.003,17.659 0.005,35.319 -0.022,52.979 -0.001,0.843 0.232,1.376 0.953,1.807 2.746,1.637 5.594,2.465 8.881,2.001 C -5.216,57.238 -2.87,56.646 -0.7,55.442 -0.266,55.201 0.185,54.52 0.185,54.041 0.204,36.133 0.17,18.226 0.144,0.318 0.096,0.212 0.048,0.106 0,0" style="fill: rgb(255, 255, 255); fill-opacity: 1; fill-rule: nonzero; stroke: none; --darkreader-inline-fill: #e8e6e3; --darkreader-inline-stroke: none;" id="path52" data-darkreader-inline-fill="" data-darkreader-inline-stroke=""/>
  </g>
  <g id="g54" transform="matrix(1.3333332538604736, 0, 0, -1.3333332538604736, 519.3828629225753, 20.811987457196665)">
    <path d="m 0,0 c -0.154,0.336 -0.44,0.67 -0.443,1.007 -0.038,4.352 -0.004,8.704 -0.068,13.055 -0.014,0.941 0.344,1.11 1.155,1.109 18.673,-0.012 37.345,-0.009 56.017,-0.009 2.028,0 4.056,0 6.24,0 V 0.056 c -1.047,0 -2.028,0 -3.01,0 C 40.429,0.056 20.966,0.057 1.504,0.054 1.09,0.054 0.676,0.015 0.262,-0.006 0.174,-0.004 0.087,-0.002 0,0" style="fill: rgb(255, 255, 255); fill-opacity: 1; fill-rule: nonzero; stroke: none; --darkreader-inline-fill: #e8e6e3; --darkreader-inline-stroke: none;" id="path56" data-darkreader-inline-fill="" data-darkreader-inline-stroke=""/>
  </g>
  <g id="g58" transform="matrix(1.3333332538604736, 0, 0, -1.3333332538604736, 25.16093803479634, 69.47024871709436)">
    <path d="m 0,0 c 0,-8.666 -0.019,-17.332 0.024,-25.997 0.005,-1.072 -0.241,-1.411 -1.369,-1.399 -5.074,0.055 -10.15,0.035 -15.225,-0.023 -1.031,-0.012 -1.225,0.356 -1.224,1.299 0.019,16.295 0.008,32.59 -0.015,48.884 -0.002,0.827 0.19,1.248 1.108,1.429 5.305,1.042 10.595,2.167 15.899,3.219 0.233,0.046 0.66,-0.295 0.805,-0.56 0.14,-0.257 0.033,-0.647 0.033,-0.979 0,-8.624 0,-17.249 0,-25.873 z" style="fill: rgb(255, 255, 255); fill-opacity: 1; fill-rule: nonzero; stroke: none; --darkreader-inline-fill: #e8e6e3; --darkreader-inline-stroke: none;" id="path60" data-darkreader-inline-fill="" data-darkreader-inline-stroke=""/>
  </g>
  <g id="g62" transform="matrix(1.3333332538604736, 0, 0, -1.3333332538604736, 136.72120360208282, 1.491187827556132)">
    <path d="m 0,0 v -60.571 c -7.717,4.423 -11.697,11.308 -15.067,18.704 -0.94,2.064 -1.251,4.153 -1.24,6.4 0.057,11.442 0.027,22.885 0.027,34.328 0,0.444 0,0.889 0,1.363 H -0.105 C -0.07,0.15 -0.035,0.075 0,0" style="fill: rgb(255, 255, 255); fill-opacity: 1; fill-rule: nonzero; stroke: none; --darkreader-inline-fill: #e8e6e3; --darkreader-inline-stroke: none;" id="path64" data-darkreader-inline-fill="" data-darkreader-inline-stroke=""/>
  </g>
  <g id="g66" transform="matrix(1.3333332538604736, 0, 0, -1.3333332538604736, 681.1379395442417, 60.84691752535582)">
    <path d="m 0,0 c 7.27,-11.285 14.453,-22.434 21.733,-33.735 -0.455,-0.04 -0.798,-0.097 -1.141,-0.097 -5.987,0 -11.975,0.035 -17.961,-0.013 -1.135,-0.009 -1.863,0.345 -2.464,1.287 -3.413,5.345 -6.872,10.661 -10.273,16.013 -0.213,0.336 -0.264,1.022 -0.062,1.333 3.18,4.9 6.414,9.767 9.641,14.638 0.111,0.167 0.273,0.3 0.527,0.574" style="fill: rgb(234, 62, 40); fill-opacity: 1; fill-rule: nonzero; stroke: none; --darkreader-inline-fill: #ec4e3a; --darkreader-inline-stroke: none;" id="path68" data-darkreader-inline-fill="" data-darkreader-inline-stroke=""/>
  </g>
  <g id="g70" transform="matrix(1.3333332538604736, 0, 0, -1.3333332538604736, 680.9739584342241, 41.25290420757301)">
    <path d="m 0,0 c -0.466,0.571 -0.847,0.994 -1.179,1.452 -2.917,4.029 -5.794,8.086 -8.759,12.079 -0.672,0.905 -0.292,1.541 0.147,2.239 2.272,3.612 4.562,7.212 6.845,10.817 0.421,0.664 0.932,1.291 1.241,2.004 0.556,1.285 1.519,1.521 2.802,1.51 5.86,-0.05 11.72,-0.024 17.58,-0.031 0.273,0 0.547,-0.047 1.043,-0.093 C 13.112,19.932 6.603,10.038 0,0" style="fill: rgb(234, 62, 40); fill-opacity: 1; fill-rule: nonzero; stroke: none; --darkreader-inline-fill: #ec4e3a; --darkreader-inline-stroke: none;" id="path72" data-darkreader-inline-fill="" data-darkreader-inline-stroke=""/>
  </g>
  <g id="g74" transform="matrix(1.3333332538604736, 0, 0, -1.3333332538604736, 24.844277490519747, 1.4379855195292919)">
    <path d="m 0,0 c 0.068,-0.144 0.195,-0.287 0.195,-0.431 0.011,-3.935 0.008,-7.871 0.008,-11.917 -0.328,-0.045 -0.64,-0.126 -0.952,-0.126 -5.115,-0.008 -10.231,0.024 -15.345,-0.029 -1.107,-0.012 -1.434,0.327 -1.413,1.415 0.069,3.604 0.045,7.21 0.056,10.816 0.156,0.148 0.312,0.296 0.468,0.444 0.244,0.001 0.488,0.002 0.732,0.003 0.089,0 0.178,0 0.267,0 0.246,-0.003 0.492,-0.006 0.738,-0.008 0.358,-0.063 0.715,-0.18 1.073,-0.181 C -9.449,-0.019 -4.724,-0.007 0,0" style="fill: rgb(235, 62, 40); fill-opacity: 1; fill-rule: nonzero; stroke: none; --darkreader-inline-fill: #ed4e3a; --darkreader-inline-stroke: none;" id="path76" data-darkreader-inline-fill="" data-darkreader-inline-stroke=""/>
  </g>
  <g id="g78" transform="matrix(1.3333332538604736, 0, 0, -1.3333332538604736, 24.844277490519747, 1.4379855195292919)">
    <path d="m 0,0 c -4.724,-0.007 -9.449,-0.019 -14.173,-0.014 -0.358,0.001 -0.715,0.118 -1.073,0.181 4.903,0.023 9.805,0.049 14.707,0.06 C -0.359,0.227 -0.18,0.079 0,0" style="fill: rgb(182, 42, 37); fill-opacity: 1; fill-rule: nonzero; stroke: none; --darkreader-inline-fill: #dc5a55; --darkreader-inline-stroke: none;" id="path80" data-darkreader-inline-fill="" data-darkreader-inline-stroke=""/>
  </g>
  <g id="g82" transform="matrix(1.3333332538604736, 0, 0, -1.3333332538604736, 2.200409122283702, 1.2085136907589913)">
    <path d="M 0,0 C -0.156,-0.148 -0.312,-0.296 -0.468,-0.444 -0.312,-0.296 -0.156,-0.148 0,0" style="fill: rgb(182, 42, 37); fill-opacity: 1; fill-rule: nonzero; stroke: none; --darkreader-inline-fill: #dc5a55; --darkreader-inline-stroke: none;" id="path84" data-darkreader-inline-fill="" data-darkreader-inline-stroke=""/>
  </g>
  <g id="g86" transform="matrix(1.3333332538604736, 0, 0, -1.3333332538604736, 438.9743390694639, 1.827857729364041)">
    <path d="M 0,0 C -0.045,0.164 -0.089,0.328 -0.134,0.492 -0.089,0.328 -0.045,0.164 0,0" style="fill: rgb(88, 89, 89); fill-opacity: 1; fill-rule: nonzero; stroke: none; --darkreader-inline-fill: #b0a99f; --darkreader-inline-stroke: none;" id="path88" data-darkreader-inline-fill="" data-darkreader-inline-stroke=""/>
  </g>
  <g id="g90" transform="matrix(1.3333332538604736, 0, 0, -1.3333332538604736, 519.3828629225753, 20.811987457196665)">
    <path d="M 0,0 C 0.087,-0.002 0.174,-0.004 0.262,-0.006 0.174,-0.004 0.087,-0.002 0,0" style="fill: rgb(45, 46, 46); fill-opacity: 1; fill-rule: nonzero; stroke: none; --darkreader-inline-fill: #cbc7c0; --darkreader-inline-stroke: none;" id="path92" data-darkreader-inline-fill="" data-darkreader-inline-stroke=""/>
  </g>
  <g id="g94" transform="matrix(1.3333332538604736, 0, 0, -1.3333332538604736, 612.1805868835871, 1.4613212928780115)">
    <path d="M 0,0 C 0.035,-0.075 0.069,-0.15 0.104,-0.225 0.069,-0.15 0.035,-0.075 0,0" style="fill: rgb(45, 46, 46); fill-opacity: 1; fill-rule: nonzero; stroke: none; --darkreader-inline-fill: #cbc7c0; --darkreader-inline-stroke: none;" id="path96" data-darkreader-inline-fill="" data-darkreader-inline-stroke=""/>
  </g>
  <g id="g98" transform="matrix(1.3333332538604736, 0, 0, -1.3333332538604736, 276.63440327041826, 1.4942599302376038)">
    <path d="M 0,0 C -0.056,0.072 -0.113,0.145 -0.169,0.217 -0.113,0.145 -0.056,0.072 0,0" style="fill: rgb(181, 181, 181); fill-opacity: 1; fill-rule: nonzero; stroke: none; --darkreader-inline-fill: #b9b3aa; --darkreader-inline-stroke: none;" id="path100" data-darkreader-inline-fill="" data-darkreader-inline-stroke=""/>
  </g>
  <g id="g102" transform="matrix(1.3333332538604736, 0, 0, -1.3333332538604736, 136.72120360208282, 1.491187827556132)">
    <path d="M 0,0 C -0.035,0.075 -0.07,0.15 -0.105,0.224 -0.07,0.15 -0.035,0.075 0,0" style="fill: rgb(96, 95, 95); fill-opacity: 1; fill-rule: nonzero; stroke: none; --darkreader-inline-fill: #aca49a; --darkreader-inline-stroke: none;" id="path104" data-darkreader-inline-fill="" data-darkreader-inline-stroke=""/>
  </g>
  <g id="g106" transform="matrix(1.3333332538604736, 0, 0, -1.3333332538604736, 3.532277214590067, 1.2050550321109768)">
    <path d="M 0,0 C -0.089,0 -0.178,0 -0.267,0 -0.178,0 -0.089,0 0,0" style="fill: rgb(182, 42, 37); fill-opacity: 1; fill-rule: nonzero; stroke: none; --darkreader-inline-fill: #dc5a55; --darkreader-inline-stroke: none;" id="path108" data-darkreader-inline-fill="" data-darkreader-inline-stroke=""/>
  </g>
  <g id="g110" transform="matrix(1.3333332538604736, 0, 0, -1.3333332538604736, 454.1500787248151, 64.5950455571583)">
    <path d="M 0,0 C 0.087,-0.005 0.174,-0.01 0.261,-0.015 0.174,-0.01 0.087,-0.005 0,0" style="fill: rgb(255, 255, 255); fill-opacity: 1; fill-rule: nonzero; stroke: none; --darkreader-inline-fill: #e8e6e3; --darkreader-inline-stroke: none;" id="path112" data-darkreader-inline-fill="" data-darkreader-inline-stroke=""/>
  </g>
  <g id="g114" transform="matrix(1.3333332538604736, 0, 0, -1.3333332538604736, 572.3632878245916, 105.70411293108555)">
    <path d="M 0,0 C 0.048,0.106 0.096,0.212 0.144,0.318 0.096,0.212 0.048,0.106 0,0" style="fill: rgb(255, 255, 255); fill-opacity: 1; fill-rule: nonzero; stroke: none; --darkreader-inline-fill: #e8e6e3; --darkreader-inline-stroke: none;" id="path116" data-darkreader-inline-fill="" data-darkreader-inline-stroke=""/>
  </g>
  <g id="g118" transform="matrix(1.3333332538604736, 0, 0, -1.3333332538604736, 438.5046125349618, 106.02078364788758)">
    <path d="M 0,0 C 0.077,0.03 0.155,0.06 0.232,0.091 0.155,0.06 0.077,0.03 0,0" style="fill: rgb(255, 255, 255); fill-opacity: 1; fill-rule: nonzero; stroke: none; --darkreader-inline-fill: #e8e6e3; --darkreader-inline-stroke: none;" id="path120" data-darkreader-inline-fill="" data-darkreader-inline-stroke=""/>
  </g>
  <g id="g122" transform="matrix(1.3333332538604736, 0, 0, -1.3333332538604736, 482.9425981675013, 105.79023353142111)">
    <path d="M 0,0 C 0.094,-0.004 0.138,-0.052 0.132,-0.146 0.075,-0.161 0.018,-0.177 -0.039,-0.192 -0.026,-0.128 -0.013,-0.064 0,0" style="fill: rgb(255, 255, 255); fill-opacity: 1; fill-rule: nonzero; stroke: none; --darkreader-inline-fill: #e8e6e3; --darkreader-inline-stroke: none;" id="path124" data-darkreader-inline-fill="" data-darkreader-inline-stroke=""/>
  </g>
</svg>