<svg width="24" height="24" viewBox="0 0 24 24" fill="none" xmlns="http://www.w3.org/2000/svg">
<path d="M9.51001 19.0029V19.5149C9.51001 20.889 10.6239 22.0029 11.998 22.0029H12C12.6601 22.0032 13.2933 21.7412 13.7603 21.2746C14.2273 20.808 14.4897 20.1751 14.49 19.5149V19.0029" stroke="white" stroke-width="1.5" stroke-linecap="round" stroke-linejoin="round"/>
<path d="M18 11V14.0509L19.364 15.4139C19.7708 15.8216 19.9995 16.374 20 16.9499C20 18.0838 19.0808 19.0029 17.947 19.0029H6.053C5.50851 19.0029 4.98632 18.7866 4.60131 18.4016C4.2163 18.0166 4 17.4944 4 16.9499C4.00046 16.374 4.22916 15.8216 4.636 15.4139L6 14.0509V10.0029C6 6.68922 8.00167 4.00293 12.4998 4.00293" stroke="white" stroke-width="1.5" stroke-linecap="round" stroke-linejoin="round"/>
<circle cx="16.4981" cy="6.50203" r="4.49813" stroke="white" stroke-width="1.5" stroke-linecap="round" stroke-linejoin="round"/>
<path d="M17.9975 6.50174H14.9987" stroke="white" stroke-width="1.5" stroke-linecap="round" stroke-linejoin="round"/>
<path d="M16.4981 5.00293V8.00168" stroke="white" stroke-width="1.5" stroke-linecap="round" stroke-linejoin="round"/>
</svg>
