<svg width="16" height="16" viewBox="0 0 16 16" fill="none" xmlns="http://www.w3.org/2000/svg">
<path d="M6.33997 12.6689V13.0103C6.33997 13.9263 7.08258 14.6689 7.99863 14.6689H7.99997C8.44005 14.6691 8.86218 14.4945 9.17349 14.1834C9.4848 13.8723 9.65979 13.4504 9.65997 13.0103V12.6689" stroke="#FFFFFF" stroke-width="1" stroke-linecap="round" stroke-linejoin="round"/>
<path d="M12 7.33367V9.36761L12.9093 10.2763C13.1805 10.5481 13.333 10.9163 13.3333 11.3003C13.3333 12.0562 12.7205 12.6689 11.9646 12.6689H4.03529C3.6723 12.6689 3.32417 12.5247 3.0675 12.2681C2.81082 12.0114 2.66663 11.6633 2.66663 11.3003C2.66693 10.9163 2.8194 10.5481 3.09063 10.2763L3.99996 9.36761V6.66895C3.99996 4.45981 5.33441 2.66895 8.33316 2.66895" stroke="#FFFFFF" stroke-width="1" stroke-linecap="round" stroke-linejoin="round"/>
<ellipse cx="10.9988" cy="4.33481" rx="2.99875" ry="2.99875" stroke="#FFFFFF" stroke-width="1" stroke-linecap="round" stroke-linejoin="round"/>
<path d="M11.9983 4.33478H9.99915" stroke="#FFFFFF" stroke-width="1" stroke-linecap="round" stroke-linejoin="round"/>
<path d="M10.9987 3.33521V5.33437" stroke="#FFFFFF" stroke-width="1" stroke-linecap="round" stroke-linejoin="round"/>
</svg>
