<svg width="88" height="89" viewBox="0 0 88 89" fill="none" xmlns="http://www.w3.org/2000/svg">
<g filter="url(#filter0_d_1111_9121)">
<path d="M44 0.5C21.9086 0.5 4 18.4086 4 40.5C4 52.8817 9.62661 63.9487 18.4614 71.2858L18.6247 71.2091V69.06C18.6247 65.549 21.481 62.6927 24.992 62.6927H63.008C66.519 62.6927 69.3754 65.549 69.3754 69.06V71.2091L69.5386 71.2858C78.3734 63.9487 84 52.8817 84 40.5C84 18.4086 66.0914 0.5 44 0.5Z" fill="#EB3D29"/>
<path d="M43.9999 13.834L43.9999 23.0007" stroke="white" stroke-width="2"/>
<g filter="url(#filter1_i_1111_9121)">
<rect x="33.9999" y="21.334" width="20" height="8.33333" rx="4" fill="white"/>
</g>
<path fill-rule="evenodd" clip-rule="evenodd" d="M37.9999 21.332C35.7908 21.332 33.9999 23.1229 33.9999 25.332V25.6654C33.9999 27.0038 34.6573 28.1887 35.6668 28.9148V26.9984C35.6668 24.7892 37.4576 22.9984 39.6668 22.9984H53.249C52.5229 21.9892 51.3381 21.332 49.9999 21.332H37.9999Z" fill="#D1D5DB"/>
<path d="M31.2665 59.3604H56.7359V62.6921H31.2665V59.3604Z" fill="white"/>
<path d="M31.2665 59.3604H37.7972V62.6921H31.2665V59.3604Z" fill="#D1D5DB"/>
<path d="M63.0097 62.5293H24.9937C21.387 62.5293 18.4631 65.4532 18.4631 69.0599V71.2857C25.3912 77.0393 34.2921 80.4999 44.0017 80.4999C53.7112 80.4999 62.6121 77.0393 69.5403 71.2857V69.0599C69.5403 65.4531 66.6164 62.5293 63.0097 62.5293Z" fill="#F9FAFB"/>
<path d="M25.2505 69.0609C25.2505 65.4542 28.1744 62.5303 31.7811 62.5303H24.9932C21.3865 62.5303 18.4626 65.4542 18.4626 69.0609V71.2867C20.5556 73.0248 22.8296 74.552 25.2505 75.8395V69.0609Z" fill="#D1D5DB"/>
<path d="M44.6198 75.1832L49.2922 69.7675C49.7485 69.2385 49.3727 68.418 48.674 68.418H39.3296C38.6309 68.418 38.2551 69.2385 38.7114 69.7675L43.3838 75.1832C43.7093 75.5607 44.2941 75.5607 44.6198 75.1832Z" fill="white"/>
<path d="M42.0791 69.7675C41.6228 69.2385 41.9984 68.418 42.6972 68.418H39.3296C38.6309 68.418 38.2551 69.2385 38.7114 69.7675L43.3836 75.1832C43.7093 75.5607 44.2941 75.5607 44.6198 75.1832L45.6856 73.9478L42.0791 69.7675Z" fill="#D1D5DB"/>
<path d="M18.1896 51.8859V44.7995C18.1896 43.4965 18.3192 42.2234 18.5645 40.9912H17.3717C14.9606 40.9912 13.0061 42.9457 13.0061 45.3568V49.0675C13.0061 51.4786 14.9606 53.433 17.3717 53.433H18.3517C18.2461 52.9337 18.1896 52.4164 18.1896 51.8859Z" fill="white"/>
<path d="M70.6326 40.9912H69.4398C69.685 42.2232 69.8147 43.4965 69.8147 44.7995V51.8859C69.8147 52.4164 69.7582 52.9337 69.6527 53.4332H70.6328C73.0439 53.4332 74.9984 51.4787 74.9984 49.0676V45.3569C74.9982 42.9457 73.0437 40.9912 70.6326 40.9912Z" fill="white"/>
<path d="M62.3366 59.5244H25.6659C21.4467 59.5244 18.0262 56.104 18.0262 51.8847V44.7984C18.0262 33.9487 26.8215 25.1533 37.6711 25.1533H50.3312C61.1809 25.1533 69.9763 33.9487 69.9763 44.7984V51.8847C69.9763 56.104 66.5559 59.5244 62.3366 59.5244Z" fill="#F9FAFB"/>
<path d="M26.532 51.8846V49.345C25.3012 47.6095 24.5747 45.4924 24.5747 43.2075C24.5747 39.3652 26.6227 35.9925 29.6842 34.1228C33.1854 28.7249 39.2638 25.1533 46.1771 25.1533H37.6713C26.8217 25.1533 18.0262 33.9487 18.0262 44.7984V51.8848C18.0262 56.104 21.4467 59.5244 25.6659 59.5244H34.1717C29.9524 59.5244 26.532 56.104 26.532 51.8846Z" fill="#D1D5DB"/>
<path d="M35.2121 53.8467C29.3468 53.8467 24.5749 49.0748 24.5749 43.2095C24.5749 37.3442 29.3468 32.5723 35.2121 32.5723H52.7912C58.6565 32.5723 63.4284 37.3442 63.4284 43.2095C63.4284 49.0748 58.6565 53.8467 52.7912 53.8467H35.2121Z" fill="#1F2937"/>
<path d="M31.4302 43.2095C31.4302 37.3442 36.2022 32.5723 42.0675 32.5723H35.2121C29.3468 32.5723 24.5749 37.3442 24.5749 43.2095C24.5749 49.0748 29.3468 53.8467 35.2121 53.8467H42.0675C36.2022 53.8467 31.4302 49.0748 31.4302 43.2095Z" fill="#374151"/>
<path d="M49.6779 48.3373H38.3274C37.7246 48.3373 37.236 47.8487 37.236 47.2459V45.4996C37.236 44.8969 37.7246 44.4082 38.3274 44.4082H49.6779C50.2807 44.4082 50.7693 44.8969 50.7693 45.4996V47.2459C50.7693 47.8487 50.2807 48.3373 49.6779 48.3373Z" fill="#FBBF24"/>
<path d="M35.3246 43.0985H32.4871C31.8843 43.0985 31.3956 42.6099 31.3956 42.0071V39.1696C31.3956 38.5668 31.8843 38.0781 32.4871 38.0781H35.3246C35.9274 38.0781 36.416 38.5668 36.416 39.1696V42.0071C36.416 42.6099 35.9274 43.0985 35.3246 43.0985Z" fill="#FBBF24"/>
<path d="M55.5153 43.0985H52.6778C52.075 43.0985 51.5864 42.6099 51.5864 42.0071V39.1696C51.5864 38.5668 52.075 38.0781 52.6778 38.0781H55.5153C56.1181 38.0781 56.6068 38.5668 56.6068 39.1696V42.0071C56.6068 42.6099 56.1181 43.0985 55.5153 43.0985Z" fill="#FBBF24"/>
<g filter="url(#filter2_i_1111_9121)">
<circle cx="43.9999" cy="13" r="5" fill="white"/>
</g>
<path fill-rule="evenodd" clip-rule="evenodd" d="M48.2693 10.3962C47.5112 9.93318 46.6201 9.66635 45.6668 9.66635C42.9053 9.66635 40.6668 11.9049 40.6668 14.6663C40.6668 15.6202 40.9339 16.5117 41.3974 17.2701C39.9596 16.392 38.9999 14.8081 38.9999 13C38.9999 10.2386 41.2385 8 43.9999 8C45.8075 8 47.391 8.95914 48.2693 10.3962Z" fill="#D1D5DB"/>
</g>
<defs>
<filter id="filter0_d_1111_9121" x="0" y="0.5" width="88" height="88" filterUnits="userSpaceOnUse" color-interpolation-filters="sRGB">
<feFlood flood-opacity="0" result="BackgroundImageFix"/>
<feColorMatrix in="SourceAlpha" type="matrix" values="0 0 0 0 0 0 0 0 0 0 0 0 0 0 0 0 0 0 127 0" result="hardAlpha"/>
<feOffset dy="4"/>
<feGaussianBlur stdDeviation="2"/>
<feComposite in2="hardAlpha" operator="out"/>
<feColorMatrix type="matrix" values="0 0 0 0 0 0 0 0 0 0 0 0 0 0 0 0 0 0 0.25 0"/>
<feBlend mode="normal" in2="BackgroundImageFix" result="effect1_dropShadow_1111_9121"/>
<feBlend mode="normal" in="SourceGraphic" in2="effect1_dropShadow_1111_9121" result="shape"/>
</filter>
<filter id="filter1_i_1111_9121" x="33.9999" y="21.334" width="20" height="8.33301" filterUnits="userSpaceOnUse" color-interpolation-filters="sRGB">
<feFlood flood-opacity="0" result="BackgroundImageFix"/>
<feBlend mode="normal" in="SourceGraphic" in2="BackgroundImageFix" result="shape"/>
<feColorMatrix in="SourceAlpha" type="matrix" values="0 0 0 0 0 0 0 0 0 0 0 0 0 0 0 0 0 0 127 0" result="hardAlpha"/>
<feOffset dx="28.3757" dy="10.6409"/>
<feComposite in2="hardAlpha" operator="arithmetic" k2="-1" k3="1"/>
<feColorMatrix type="matrix" values="0 0 0 0 1 0 0 0 0 1 0 0 0 0 1 0 0 0 0.25 0"/>
<feBlend mode="normal" in2="shape" result="effect1_innerShadow_1111_9121"/>
</filter>
<filter id="filter2_i_1111_9121" x="38.9999" y="8" width="10" height="10" filterUnits="userSpaceOnUse" color-interpolation-filters="sRGB">
<feFlood flood-opacity="0" result="BackgroundImageFix"/>
<feBlend mode="normal" in="SourceGraphic" in2="BackgroundImageFix" result="shape"/>
<feColorMatrix in="SourceAlpha" type="matrix" values="0 0 0 0 0 0 0 0 0 0 0 0 0 0 0 0 0 0 127 0" result="hardAlpha"/>
<feOffset dx="28.3757" dy="10.6409"/>
<feComposite in2="hardAlpha" operator="arithmetic" k2="-1" k3="1"/>
<feColorMatrix type="matrix" values="0 0 0 0 1 0 0 0 0 1 0 0 0 0 1 0 0 0 0.25 0"/>
<feBlend mode="normal" in2="shape" result="effect1_innerShadow_1111_9121"/>
</filter>
</defs>
</svg>
