<svg width="24" height="24" viewBox="0 0 24 24" fill="none" xmlns="http://www.w3.org/2000/svg">
<path d="M3.26401 5.53699V7.53699H5.26401H3.26401" stroke="#323232" stroke-width="1.5" stroke-linecap="round" stroke-linejoin="round"/>
<path d="M7.58701 10.729C7.58701 9.91801 8.24501 9.26001 9.05601 9.26001C9.86701 9.26001 10.525 9.91801 10.525 10.729C10.525 12.565 7.58801 12.565 7.58801 14.739H10.525" stroke="#323232" stroke-width="1.5" stroke-linecap="round" stroke-linejoin="round"/>
<path d="M15.894 12.03L13.382 12.003C13.24 12.001 13.125 11.886 13.125 11.743V9.26099" stroke="#323232" stroke-width="1.5" stroke-linecap="round" stroke-linejoin="round"/>
<path d="M15.89 9.32001V14.74" stroke="#323232" stroke-width="1.5" stroke-linecap="round" stroke-linejoin="round"/>
<path d="M3.70001 7.53799C5.30301 4.63599 8.41801 2.66699 12 2.66699C17.155 2.66699 21.333 6.84599 21.333 12C21.333 17.154 17.155 21.333 12 21.333C6.84501 21.333 2.66701 17.154 2.66701 12" stroke="#323232" stroke-width="1.5" stroke-linecap="round" stroke-linejoin="round"/>
</svg>
