<svg width="24" height="24" viewBox="0 0 24 24" fill="none" xmlns="http://www.w3.org/2000/svg">
<path d="M13.0004 8.99875C13.0004 10.1042 10.7614 10.9996 7.99928 10.9996C5.23612 10.9996 2.99719 10.1042 2.99719 8.99875" stroke="white" stroke-width="2" stroke-linecap="round" stroke-linejoin="round"/>
<path d="M7.99828 15.0013C5.23612 15.0013 2.99719 14.1059 2.99719 13.0004" stroke="white" stroke-width="2" stroke-linecap="round" stroke-linejoin="round"/>
<path d="M12.9995 4.99707H13.0005V10.9996" stroke="white" stroke-width="2" stroke-linecap="round" stroke-linejoin="round"/>
<path d="M21.0008 15.0013C21.0028 13.8958 18.7619 13.0004 16.0007 13.0004C13.2396 13.0004 10.9986 13.8958 10.9996 15.0013C10.9996 16.1067 13.2386 17.0021 16.0017 17.0021C18.7649 17.0021 21.0038 16.1067 21.0038 15.0013" stroke="white" stroke-width="2" stroke-linecap="round" stroke-linejoin="round"/>
<path d="M21.0028 15.0013V19.0029C21.0028 20.1084 18.7639 21.0038 16.0017 21.0038C13.2386 21.0038 10.9996 20.1084 10.9996 19.0029V15.0013" stroke="white" stroke-width="2" stroke-linecap="round" stroke-linejoin="round"/>
<path d="M7.9983 19.0029C5.23615 19.0029 2.99622 18.1075 2.99622 17.0021" stroke="white" stroke-width="2" stroke-linecap="round" stroke-linejoin="round"/>
<ellipse cx="7.9983" cy="4.99708" rx="5.00208" ry="2.00083" stroke="white" stroke-width="1.5" stroke-linecap="round" stroke-linejoin="round"/>
<path d="M2.9963 4.99707V17.0021" stroke="white" stroke-width="2" stroke-linecap="round" stroke-linejoin="round"/>
<path d="M18.0025 4.99707V9.99915" stroke="white" stroke-width="1.5" stroke-linecap="round" stroke-linejoin="round"/>
<path d="M20.0034 6.9979L18.0025 4.99707L16.0017 6.9979" stroke="white" stroke-width="1.5" stroke-linecap="round" stroke-linejoin="round"/>
</svg>
