<svg width="25" height="24" viewBox="0 0 25 24" fill="none" xmlns="http://www.w3.org/2000/svg">
<path d="M3.50098 8.00082C3.50098 9.10582 5.73898 10.0008 8.50098 10.0008" stroke="#374151" stroke-width="1.5" stroke-linecap="round" stroke-linejoin="round"/>
<path d="M11.5 15.0008C11.5 16.1058 13.738 17.0008 16.5 17.0008C19.262 17.0008 21.5 16.1058 21.5 15.0008" stroke="#374151" stroke-width="1.5" stroke-linecap="round" stroke-linejoin="round"/>
<path d="M11.501 15.0008V19.0008C11.501 20.1058 13.739 21.0008 16.501 21.0008" stroke="#374151" stroke-width="1.5" stroke-linecap="round" stroke-linejoin="round"/>
<path d="M21.499 15.0008V19.0008C21.499 20.1058 19.261 21.0008 16.499 21.0008" stroke="#374151" stroke-width="1.5" stroke-linecap="round" stroke-linejoin="round"/>
<path d="M8.5 18.0008C5.739 18.0008 3.5 17.1058 3.5 16.0008" stroke="#374151" stroke-width="1.5" stroke-linecap="round" stroke-linejoin="round"/>
<path d="M3.5 8.00082V16.0008" stroke="#374151" stroke-width="1.5" stroke-linecap="round" stroke-linejoin="round"/>
<path d="M21.497 15.0008C21.499 13.8958 19.259 13.0008 16.499 13.0008C13.739 13.0008 11.499 13.8958 11.5 15.0008C11.5 16.1058 13.738 17.0008 16.5 17.0008C19.262 17.0008 21.5 16.1058 21.5 15.0008" stroke="#374151" stroke-width="1.5" stroke-linecap="round" stroke-linejoin="round"/>
<ellipse cx="8.5" cy="8.00082" rx="5" ry="2" stroke="#374151" stroke-width="1.5" stroke-linecap="round" stroke-linejoin="round"/>
<path d="M13.5 8.00082V10.5008" stroke="#374151" stroke-width="1.5" stroke-linecap="round" stroke-linejoin="round"/>
<path d="M18 6.50082L21 3.50082" stroke="#374151" stroke-width="1.5" stroke-linecap="round" stroke-linejoin="round"/>
<path d="M21 6.50082L18 3.50082" stroke="#374151" stroke-width="1.5" stroke-linecap="round" stroke-linejoin="round"/>
<path d="M3.50098 12.0012C3.50098 13.106 5.73853 14.0008 8.49998 14.0008" stroke="#374151" stroke-width="1.5" stroke-linecap="round" stroke-linejoin="round"/>
<path d="M8.499 14.0008C5.73813 14.0008 3.5 13.1056 3.5 12.0012" stroke="#374151" stroke-width="1.5" stroke-linecap="round" stroke-linejoin="round"/>
</svg>
