<svg width="24" height="24" viewBox="0 0 24 24" fill="none" xmlns="http://www.w3.org/2000/svg">
<g id="Group">
<path id="Path" fill-rule="evenodd" clip-rule="evenodd" d="M12.8003 2.99622C13.2224 2.99622 13.599 3.26125 13.7417 3.65849L14.2499 5.07408C14.3306 5.29669 14.4872 5.48372 14.6921 5.6023L16.1997 6.47266C16.4045 6.59079 16.6444 6.63261 16.877 6.59071L18.3576 6.3236C18.7734 6.248 19.1918 6.4418 19.4031 6.8078L20.2034 8.18838C20.4152 8.55339 20.3752 9.01205 20.1034 9.33486L19.132 10.4833C18.979 10.6639 18.895 10.8929 18.8949 11.1296V12.8703C18.895 13.107 18.979 13.336 19.132 13.5166L20.1034 14.6651C20.3752 14.9879 20.4152 15.4465 20.2034 15.8116L19.4031 17.1921C19.192 17.5577 18.7741 17.7515 18.3586 17.6763L16.878 17.4092C16.6454 17.3673 16.4055 17.4091 16.2007 17.5273L14.6931 18.3976C14.4882 18.5162 14.3316 18.7032 14.2509 18.9259L13.7427 20.3414C13.5999 20.739 13.2228 21.0041 12.8003 21.0037H11.1997C10.7776 21.0037 10.4009 20.7387 10.2583 20.3414L9.75005 18.9259C9.66941 18.7035 9.51326 18.5166 9.30887 18.3976L7.80024 17.5273C7.59551 17.4091 7.35557 17.3673 7.12296 17.4092L5.64234 17.6763C5.22657 17.7519 4.80814 17.5581 4.5969 17.1921L3.79657 15.8116C3.58477 15.4465 3.62479 14.9879 3.89661 14.6651L4.86802 13.5166C5.02101 13.336 5.10502 13.107 5.10512 12.8703V11.1296C5.10502 10.8929 5.02101 10.6639 4.86802 10.4833L3.90662 9.33486C3.6348 9.01205 3.59477 8.55339 3.80657 8.18838L4.60691 6.8078C4.81801 6.44219 5.23591 6.24846 5.65134 6.3236L7.13196 6.59071C7.36458 6.63261 7.60451 6.59079 7.80924 6.47266L9.31787 5.6023C9.52227 5.48335 9.67841 5.2964 9.75905 5.07408L10.2673 3.65849C10.4088 3.26433 10.7809 3.00005 11.1997 2.99622H12.8003Z" stroke="#9CA3AF" stroke-width="1.5" stroke-linecap="round" stroke-linejoin="round"/>
<circle id="Oval" cx="12" cy="12" r="2.75115" stroke="#9CA3AF" stroke-width="1.5" stroke-linecap="round" stroke-linejoin="round"/>
</g>
</svg>
