<svg width="24" height="24" viewBox="0 0 24 24" fill="none" xmlns="http://www.w3.org/2000/svg">
<rect width="24" height="24" rx="12" fill="#374151"/>
<path d="M12.0002 6.99967C11.5399 6.99967 11.1668 6.62658 11.1668 6.16634C11.1668 5.7061 11.5399 5.33301 12.0002 5.33301C12.4604 5.33301 12.8335 5.7061 12.8335 6.16634C12.8335 6.62658 12.4604 6.99967 12.0002 6.99967Z" fill="white"/>
<path d="M12.0002 12.833C11.5399 12.833 11.1668 12.4599 11.1668 11.9997C11.1668 11.5394 11.5399 11.1663 12.0002 11.1663C12.4604 11.1663 12.8335 11.5394 12.8335 11.9997C12.8335 12.4599 12.4604 12.833 12.0002 12.833Z" fill="white"/>
<path d="M12.0002 18.6663C11.5399 18.6663 11.1668 18.2932 11.1668 17.833C11.1668 17.3728 11.5399 16.9997 12.0002 16.9997C12.4604 16.9997 12.8335 17.3728 12.8335 17.833C12.8335 18.2932 12.4604 18.6663 12.0002 18.6663Z" fill="white"/>
<path d="M12.0002 6.16634L12.0002 6.17467M12.0002 11.9997L12.0002 12.008M12.0002 17.833L12.0002 17.8413M12.0002 6.99967C11.5399 6.99967 11.1668 6.62658 11.1668 6.16634C11.1668 5.7061 11.5399 5.33301 12.0002 5.33301C12.4604 5.33301 12.8335 5.7061 12.8335 6.16634C12.8335 6.62658 12.4604 6.99967 12.0002 6.99967ZM12.0002 12.833C11.5399 12.833 11.1668 12.4599 11.1668 11.9997C11.1668 11.5394 11.5399 11.1663 12.0002 11.1663C12.4604 11.1663 12.8335 11.5394 12.8335 11.9997C12.8335 12.4599 12.4604 12.833 12.0002 12.833ZM12.0002 18.6663C11.5399 18.6663 11.1668 18.2932 11.1668 17.833C11.1668 17.3728 11.5399 16.9997 12.0002 16.9997C12.4604 16.9997 12.8335 17.3728 12.8335 17.833C12.8335 18.2932 12.4604 18.6663 12.0002 18.6663Z" stroke="white" stroke-width="2" stroke-linecap="round" stroke-linejoin="round"/>
</svg>
