<svg width="128" height="128" viewBox="0 0 128 128" fill="none" xmlns="http://www.w3.org/2000/svg">
<g id="Group">
<g id="Group_2">
<path id="Path" d="M69.3333 112C66.3893 112 64 109.611 64 106.667" stroke="#6B7280" stroke-width="3" stroke-linecap="round" stroke-linejoin="round"/>
<path id="Path_2" d="M85.3334 112L90.6667 112" stroke="#6B7280" stroke-width="3" stroke-linecap="round" stroke-linejoin="round"/>
<path id="Path_3" d="M112 106.667C112 109.611 109.611 112 106.667 112" stroke="#6B7280" stroke-width="3" stroke-linecap="round" stroke-linejoin="round"/>
<path id="Path_4" d="M112 90.667L112 85.3337" stroke="#6B7280" stroke-width="3" stroke-linecap="round" stroke-linejoin="round"/>
<path id="Path_5" d="M64 90.667L64 85.3337" stroke="#6B7280" stroke-width="3" stroke-linecap="round" stroke-linejoin="round"/>
<path id="Path_6" d="M106.667 64.0007C109.611 64.0007 112 66.39 112 69.334" stroke="#6B7280" stroke-width="3" stroke-linecap="round" stroke-linejoin="round"/>
<path id="Path_7" d="M90.6667 64.0003L85.3334 64.0003" stroke="#6B7280" stroke-width="3" stroke-linecap="round" stroke-linejoin="round"/>
<path id="Path_8" d="M64 69.334C64 66.39 66.3893 64.0007 69.3333 64.0007" stroke="#6B7280" stroke-width="3" stroke-linecap="round" stroke-linejoin="round"/>
<path id="Path_9" d="M64 90.667L26.6667 90.667C20.7733 90.667 16 85.8937 16 80.0003L16 26.667C16 20.7737 20.7733 16.0003 26.6667 16.0003L80 16.0003C85.8933 16.0003 90.6667 20.7737 90.6667 26.667L90.6667 64.0003" stroke="#6B7280" stroke-width="3" stroke-linecap="round" stroke-linejoin="round"/>
<path id="Path_10" d="M53.3333 53.334L32 32.0006" stroke="#6B7280" stroke-width="3" stroke-linecap="round" stroke-linejoin="round"/>
<path id="Path_11" d="M32 48L32 32L48 32" stroke="#6B7280" stroke-width="3" stroke-linecap="round" stroke-linejoin="round"/>
</g>
</g>
</svg>
