<svg width="65" height="65" viewBox="0 0 65 65" fill="none" xmlns="http://www.w3.org/2000/svg">
<g id="Group">
<g id="Group_2">
<path id="Path" d="M43.1711 32.4999H56.51" stroke="white" stroke-width="3" stroke-linecap="round" stroke-linejoin="round"/>
<path id="Path_2" d="M51.1744 37.8357L56.51 32.5001L51.1744 27.1646" stroke="white" stroke-width="3" stroke-linecap="round" stroke-linejoin="round"/>
<path id="Path_3" d="M53.8422 45.8389V51.1744C53.8422 54.1223 51.4546 56.51 48.5067 56.51H16.4933C13.5454 56.51 11.1578 54.1223 11.1578 51.1744V13.8255C11.1578 10.8777 13.5454 8.48999 16.4933 8.48999H48.5067C51.4546 8.48999 53.8422 10.8777 53.8422 13.8255V19.1611" stroke="white" stroke-width="3" stroke-linecap="round" stroke-linejoin="round"/>
<path id="Path_4" d="M24.4967 29.8323V35.1678" stroke="white" stroke-width="3" stroke-linecap="round" stroke-linejoin="round"/>
<path id="Path_5" d="M11.1578 51.1664C11.1578 55.1334 15.3328 57.7132 18.8783 55.9391L29.5494 50.6035C31.3582 49.6965 32.5 47.8504 32.5 45.8282V8.48999" stroke="white" stroke-width="3" stroke-linecap="round" stroke-linejoin="round"/>
</g>
</g>
</svg>
