<svg width="208" height="36" viewBox="0 0 208 36" fill="none" xmlns="http://www.w3.org/2000/svg">
<path d="M23.4983 8.99625V11.9975" stroke="#374151" stroke-width="1.5" stroke-linecap="round" stroke-linejoin="round"/>
<path d="M32.5019 8.99625V11.9975" stroke="#374151" stroke-width="1.5" stroke-linecap="round" stroke-linejoin="round"/>
<rect x="18.9963" y="10.4969" width="18.0075" height="16.5069" rx="3" stroke="#374151" stroke-width="1.5" stroke-linecap="round" stroke-linejoin="round"/>
<path d="M26.2883 16.9996H29.7898L26.9486 22.0017" stroke="#374151" stroke-width="1.5" stroke-linecap="round" stroke-linejoin="round"/>
<path d="M53.233 23V12.8182H54.4659V21.9062H59.1989V23H53.233ZM63.196 23.179C62.7121 23.179 62.273 23.0878 61.8786 22.9055C61.4841 22.7199 61.1709 22.4531 60.9389 22.1051C60.7069 21.7538 60.5909 21.3295 60.5909 20.8324C60.5909 20.3949 60.6771 20.0402 60.8494 19.7685C61.0218 19.4934 61.2521 19.2779 61.5405 19.1222C61.8288 18.9664 62.147 18.8504 62.495 18.7741C62.8464 18.6946 63.1993 18.6316 63.554 18.5852C64.018 18.5256 64.3942 18.4808 64.6825 18.451C64.9742 18.4179 65.1863 18.3632 65.3189 18.2869C65.4548 18.2107 65.5227 18.0781 65.5227 17.8892V17.8494C65.5227 17.3589 65.3885 16.9777 65.12 16.706C64.8549 16.4342 64.4522 16.2983 63.9119 16.2983C63.3518 16.2983 62.9126 16.4209 62.5945 16.6662C62.2763 16.9115 62.0526 17.1733 61.9233 17.4517L60.8097 17.054C61.0085 16.59 61.2737 16.2287 61.6051 15.9702C61.9399 15.7083 62.3045 15.526 62.6989 15.4233C63.0966 15.3172 63.4877 15.2642 63.8722 15.2642C64.1174 15.2642 64.3991 15.294 64.7173 15.3537C65.0388 15.41 65.3487 15.5277 65.647 15.7067C65.9486 15.8857 66.1989 16.1558 66.3977 16.517C66.5966 16.8783 66.696 17.3622 66.696 17.9688V23H65.5227V21.9659H65.4631C65.3835 22.1316 65.2509 22.3089 65.0653 22.4979C64.8797 22.6868 64.6328 22.8475 64.3246 22.9801C64.0163 23.1127 63.6402 23.179 63.196 23.179ZM63.375 22.125C63.839 22.125 64.2301 22.0339 64.5483 21.8516C64.8698 21.6693 65.1117 21.4339 65.2741 21.1456C65.4399 20.8572 65.5227 20.554 65.5227 20.2358V19.1619C65.473 19.2216 65.3636 19.2763 65.1946 19.326C65.0289 19.3724 64.8366 19.4138 64.6179 19.4503C64.4025 19.4834 64.192 19.5133 63.9865 19.5398C63.7843 19.563 63.6203 19.5829 63.4943 19.5994C63.1894 19.6392 62.9044 19.7038 62.6392 19.7933C62.3774 19.8795 62.1652 20.0104 62.0028 20.1861C61.8438 20.3584 61.7642 20.5937 61.7642 20.892C61.7642 21.2997 61.915 21.608 62.2166 21.8168C62.5215 22.0223 62.9077 22.125 63.375 22.125ZM74.2466 17.0739L73.1926 17.3722C73.1264 17.1965 73.0286 17.0258 72.8993 16.8601C72.7734 16.6911 72.601 16.5518 72.3823 16.4425C72.1635 16.3331 71.8835 16.2784 71.5421 16.2784C71.0748 16.2784 70.6853 16.3861 70.3738 16.6016C70.0655 16.8137 69.9114 17.0838 69.9114 17.4119C69.9114 17.7036 70.0175 17.9339 70.2296 18.103C70.4417 18.272 70.7731 18.4129 71.2239 18.5256L72.3574 18.804C73.0402 18.9697 73.5489 19.2232 73.8837 19.5646C74.2185 19.9027 74.3858 20.3385 74.3858 20.8722C74.3858 21.3097 74.2599 21.7008 74.008 22.0455C73.7594 22.3902 73.4114 22.6619 72.964 22.8608C72.5165 23.0597 71.9962 23.1591 71.4029 23.1591C70.624 23.1591 69.9793 22.9901 69.4689 22.652C68.9585 22.3139 68.6354 21.8201 68.4995 21.1705L69.6131 20.892C69.7192 21.303 69.9197 21.6113 70.2147 21.8168C70.513 22.0223 70.9024 22.125 71.383 22.125C71.9299 22.125 72.3641 22.009 72.6855 21.777C73.0104 21.5417 73.1728 21.2599 73.1728 20.9318C73.1728 20.6667 73.08 20.4446 72.8944 20.2656C72.7087 20.0833 72.4237 19.9474 72.0392 19.858L70.7665 19.5597C70.0672 19.3939 69.5534 19.1371 69.2253 18.7891C68.9005 18.4377 68.7381 17.9986 68.7381 17.4716C68.7381 17.0407 68.8591 16.6596 69.101 16.3281C69.3463 15.9967 69.6794 15.7365 70.1003 15.5476C70.5246 15.3587 71.0051 15.2642 71.5421 15.2642C72.2978 15.2642 72.891 15.4299 73.3219 15.7614C73.7561 16.0928 74.0643 16.5303 74.2466 17.0739ZM79.473 15.3636V16.358H75.5156V15.3636H79.473ZM76.669 13.5341H77.8423V20.8125C77.8423 21.1439 77.8904 21.3925 77.9865 21.5582C78.0859 21.7206 78.2119 21.83 78.3643 21.8864C78.5201 21.9394 78.6842 21.9659 78.8565 21.9659C78.9858 21.9659 79.0919 21.9593 79.1747 21.946C79.2576 21.9295 79.3239 21.9162 79.3736 21.9062L79.6122 22.9602C79.5327 22.9901 79.4216 23.0199 79.2791 23.0497C79.1366 23.0829 78.956 23.0994 78.7372 23.0994C78.4058 23.0994 78.081 23.0282 77.7628 22.8857C77.4479 22.7431 77.1861 22.526 76.9773 22.2344C76.7718 21.9427 76.669 21.5748 76.669 21.1307V13.5341ZM85.4737 23L90.0277 13.9915V13.9119H84.7777V12.8182H91.3004V13.9716L86.7663 23H85.4737ZM99.9945 23.1591C99.3581 23.1591 98.7963 22.9983 98.3091 22.6768C97.8219 22.352 97.4408 21.8946 97.1657 21.3047C96.8906 20.7114 96.753 20.0104 96.753 19.2017C96.753 18.3996 96.8906 17.7036 97.1657 17.1136C97.4408 16.5237 97.8236 16.0679 98.3141 15.7464C98.8046 15.425 99.3714 15.2642 100.014 15.2642C100.512 15.2642 100.904 15.3471 101.193 15.5128C101.484 15.6752 101.706 15.8608 101.859 16.0696C102.015 16.2751 102.136 16.4441 102.222 16.5767H102.321V12.8182H103.494V23H102.361V21.8267H102.222C102.136 21.9659 102.013 22.1416 101.854 22.3537C101.695 22.5625 101.468 22.7498 101.173 22.9155C100.878 23.0779 100.485 23.1591 99.9945 23.1591ZM100.154 22.1051C100.624 22.1051 101.022 21.9825 101.347 21.7372C101.672 21.4886 101.919 21.1456 102.088 20.7081C102.257 20.2673 102.341 19.7585 102.341 19.1818C102.341 18.6117 102.258 18.1129 102.093 17.6854C101.927 17.2545 101.682 16.9197 101.357 16.6811C101.032 16.4392 100.631 16.3182 100.154 16.3182C99.6564 16.3182 99.2421 16.4458 98.9107 16.701C98.5826 16.9529 98.3356 17.2959 98.1699 17.7301C98.0075 18.161 97.9263 18.6449 97.9263 19.1818C97.9263 19.7254 98.0092 20.2192 98.1749 20.6634C98.3439 21.1042 98.5925 21.4555 98.9206 21.7173C99.2521 21.9759 99.6631 22.1051 100.154 22.1051ZM108.053 23.179C107.57 23.179 107.13 23.0878 106.736 22.9055C106.342 22.7199 106.028 22.4531 105.796 22.1051C105.564 21.7538 105.448 21.3295 105.448 20.8324C105.448 20.3949 105.535 20.0402 105.707 19.7685C105.879 19.4934 106.11 19.2779 106.398 19.1222C106.686 18.9664 107.004 18.8504 107.352 18.7741C107.704 18.6946 108.057 18.6316 108.411 18.5852C108.875 18.5256 109.252 18.4808 109.54 18.451C109.832 18.4179 110.044 18.3632 110.176 18.2869C110.312 18.2107 110.38 18.0781 110.38 17.8892V17.8494C110.38 17.3589 110.246 16.9777 109.977 16.706C109.712 16.4342 109.31 16.2983 108.769 16.2983C108.209 16.2983 107.77 16.4209 107.452 16.6662C107.134 16.9115 106.91 17.1733 106.781 17.4517L105.667 17.054C105.866 16.59 106.131 16.2287 106.463 15.9702C106.797 15.7083 107.162 15.526 107.556 15.4233C107.954 15.3172 108.345 15.2642 108.73 15.2642C108.975 15.2642 109.257 15.294 109.575 15.3537C109.896 15.41 110.206 15.5277 110.504 15.7067C110.806 15.8857 111.056 16.1558 111.255 16.517C111.454 16.8783 111.553 17.3622 111.553 17.9688V23H110.38V21.9659H110.32C110.241 22.1316 110.108 22.3089 109.923 22.4979C109.737 22.6868 109.49 22.8475 109.182 22.9801C108.874 23.1127 108.498 23.179 108.053 23.179ZM108.232 22.125C108.696 22.125 109.088 22.0339 109.406 21.8516C109.727 21.6693 109.969 21.4339 110.132 21.1456C110.297 20.8572 110.38 20.554 110.38 20.2358V19.1619C110.33 19.2216 110.221 19.2763 110.052 19.326C109.886 19.3724 109.694 19.4138 109.475 19.4503C109.26 19.4834 109.049 19.5133 108.844 19.5398C108.642 19.563 108.478 19.5829 108.352 19.5994C108.047 19.6392 107.762 19.7038 107.497 19.7933C107.235 19.8795 107.023 20.0104 106.86 20.1861C106.701 20.3584 106.622 20.5937 106.622 20.892C106.622 21.2997 106.772 21.608 107.074 21.8168C107.379 22.0223 107.765 22.125 108.232 22.125ZM114.177 25.8636C113.978 25.8636 113.801 25.8471 113.645 25.8139C113.489 25.7841 113.382 25.7543 113.322 25.7244L113.62 24.6903C113.905 24.7633 114.157 24.7898 114.376 24.7699C114.595 24.75 114.789 24.6522 114.958 24.4766C115.13 24.3042 115.288 24.0241 115.43 23.6364L115.649 23.0398L112.825 15.3636H114.098L116.206 21.4489H116.285L118.393 15.3636H119.666L116.424 24.1136C116.279 24.508 116.098 24.8345 115.882 25.093C115.667 25.3549 115.417 25.5488 115.132 25.6747C114.85 25.8007 114.532 25.8636 114.177 25.8636ZM126.624 17.0739L125.57 17.3722C125.503 17.1965 125.406 17.0258 125.276 16.8601C125.15 16.6911 124.978 16.5518 124.759 16.4425C124.54 16.3331 124.26 16.2784 123.919 16.2784C123.452 16.2784 123.062 16.3861 122.751 16.6016C122.442 16.8137 122.288 17.0838 122.288 17.4119C122.288 17.7036 122.394 17.9339 122.607 18.103C122.819 18.272 123.15 18.4129 123.601 18.5256L124.734 18.804C125.417 18.9697 125.926 19.2232 126.261 19.5646C126.595 19.9027 126.763 20.3385 126.763 20.8722C126.763 21.3097 126.637 21.7008 126.385 22.0455C126.136 22.3902 125.788 22.6619 125.341 22.8608C124.893 23.0597 124.373 23.1591 123.78 23.1591C123.001 23.1591 122.356 22.9901 121.846 22.652C121.335 22.3139 121.012 21.8201 120.876 21.1705L121.99 20.892C122.096 21.303 122.297 21.6113 122.592 21.8168C122.89 22.0223 123.279 22.125 123.76 22.125C124.307 22.125 124.741 22.009 125.062 21.777C125.387 21.5417 125.55 21.2599 125.55 20.9318C125.55 20.6667 125.457 20.4446 125.271 20.2656C125.086 20.0833 124.801 19.9474 124.416 19.858L123.143 19.5597C122.444 19.3939 121.93 19.1371 121.602 18.7891C121.277 18.4377 121.115 17.9986 121.115 17.4716C121.115 17.0407 121.236 16.6596 121.478 16.3281C121.723 15.9967 122.056 15.7365 122.477 15.5476C122.902 15.3587 123.382 15.2642 123.919 15.2642C124.675 15.2642 125.268 15.4299 125.699 15.7614C126.133 16.0928 126.441 16.5303 126.624 17.0739Z" fill="#374151"/>
</svg>
