<svg width="24" height="24" viewBox="0 0 24 24" fill="none" xmlns="http://www.w3.org/2000/svg">
<path d="M12.0001 21.0037H5.99759C4.34004 21.0037 2.99634 19.66 2.99634 18.0025V5.9975C2.99634 4.33995 4.34004 2.99625 5.99759 2.99625H18.0026C19.6601 2.99625 21.0038 4.33995 21.0038 5.9975V12" stroke="#374151" stroke-width="1.5" stroke-linecap="round" stroke-linejoin="round"/>
<path d="M21.0039 21.0037L19.1401 19.14" stroke="#374151" stroke-width="1.5" stroke-linecap="round" stroke-linejoin="round"/>
<path d="M17.0022 14.0008C18.6598 14.0008 20.0035 15.3445 20.0035 17.0021C20.0035 18.6596 18.6598 20.0033 17.0022 20.0033C15.3447 20.0033 14.001 18.6596 14.001 17.0021C14.001 15.3445 15.3447 14.0008 17.0022 14.0008" stroke="#374151" stroke-width="1.5" stroke-linecap="round" stroke-linejoin="round"/>
<path d="M21.0038 7.99832H2.99634" stroke="#374151" stroke-width="1.5" stroke-linecap="round" stroke-linejoin="round"/>
<path d="M13.75 11.4498C13.7229 11.4498 13.7009 11.4717 13.7009 11.4988C13.7009 11.5258 13.7229 11.5478 13.75 11.5478C13.777 11.5478 13.799 11.5258 13.799 11.4988C13.799 11.4717 13.777 11.4498 13.75 11.4498" stroke="#374151" stroke-width="1.5" stroke-linecap="round" stroke-linejoin="round"/>
<path d="M10.2485 11.4498C10.2356 11.4498 10.2232 11.455 10.2142 11.4642C10.2051 11.4734 10.2002 11.4859 10.2005 11.4988C10.2005 11.5187 10.2125 11.5366 10.231 11.5442C10.2494 11.5517 10.2706 11.5473 10.2845 11.5331C10.2984 11.5188 10.3024 11.4976 10.2945 11.4793C10.2866 11.461 10.2684 11.4494 10.2485 11.4498" stroke="#374151" stroke-width="1.5" stroke-linecap="round" stroke-linejoin="round"/>
<path d="M6.74681 11.4498C6.73355 11.4495 6.72076 11.4547 6.71147 11.4641C6.70219 11.4736 6.69723 11.4865 6.69779 11.4998C6.69779 11.5197 6.70985 11.5376 6.72829 11.5451C6.74673 11.5527 6.76789 11.5483 6.78183 11.5341C6.79577 11.5198 6.79971 11.4986 6.79181 11.4803C6.7839 11.462 6.76572 11.4503 6.74581 11.4508" stroke="#374151" stroke-width="1.5" stroke-linecap="round" stroke-linejoin="round"/>
<path d="M10.2485 14.451C10.2356 14.451 10.2232 14.4562 10.2142 14.4654C10.2051 14.4747 10.2002 14.4871 10.2005 14.5C10.2005 14.52 10.2125 14.5379 10.231 14.5454C10.2494 14.5529 10.2706 14.5486 10.2845 14.5343C10.2984 14.5201 10.3024 14.4989 10.2945 14.4806C10.2866 14.4623 10.2684 14.4506 10.2485 14.451" stroke="#374151" stroke-width="1.5" stroke-linecap="round" stroke-linejoin="round"/>
<path d="M6.74681 14.451C6.73355 14.4507 6.72076 14.4559 6.71147 14.4654C6.70219 14.4749 6.69723 14.4878 6.69779 14.501C6.69779 14.5209 6.70985 14.5389 6.72829 14.5464C6.74673 14.5539 6.76789 14.5495 6.78183 14.5353C6.79577 14.5211 6.79971 14.4998 6.79181 14.4816C6.7839 14.4633 6.76572 14.4516 6.74581 14.452" stroke="#374151" stroke-width="1.5" stroke-linecap="round" stroke-linejoin="round"/>
<path d="M10.2485 17.4533C10.2356 17.4533 10.2232 17.4585 10.2142 17.4677C10.2051 17.4769 10.2002 17.4894 10.2005 17.5023C10.2005 17.5222 10.2125 17.5401 10.231 17.5477C10.2494 17.5552 10.2706 17.5508 10.2845 17.5366C10.2984 17.5224 10.3024 17.5011 10.2945 17.4828C10.2866 17.4645 10.2684 17.4529 10.2485 17.4533" stroke="#374151" stroke-width="1.5" stroke-linecap="round" stroke-linejoin="round"/>
<path d="M6.74703 17.4533C6.73396 17.453 6.72133 17.4581 6.71207 17.4673C6.70282 17.4766 6.69774 17.4892 6.69802 17.5023C6.69802 17.5222 6.71008 17.5401 6.72852 17.5477C6.74696 17.5552 6.76812 17.5508 6.78206 17.5366C6.79599 17.5224 6.79994 17.5011 6.79203 17.4828C6.78413 17.4645 6.76595 17.4529 6.74604 17.4533" stroke="#374151" stroke-width="1.5" stroke-linecap="round" stroke-linejoin="round"/>
</svg>
