<svg width="158" height="24" viewBox="0 0 158 24" fill="none" xmlns="http://www.w3.org/2000/svg">
<g id="Layer_1" clip-path="url(#clip0_103_811)">
<path id="Vector" d="M87.4365 4.06187C86.5242 4.59969 85.719 5.07215 84.9167 5.55054C84.3016 5.91602 83.6836 6.27259 83.0804 6.6559C82.9051 6.76584 82.8159 6.73316 82.6733 6.60836C81.66 5.71694 80.5071 5.04243 79.173 4.81958C75.224 4.15993 71.9733 6.21613 70.6391 9.61839C70.3093 10.4623 70.131 11.3477 70.2023 12.2451C70.3479 14.123 71.1175 15.7335 72.4606 17.0647C73.563 18.1582 74.8734 18.9426 76.3888 19.1922C79.1611 19.6469 81.4936 18.7257 83.3389 16.6101C83.4161 16.521 83.4518 16.3724 83.4607 16.2476C83.4904 15.8821 83.5053 15.5166 83.5053 15.1511C83.5053 14.857 83.3151 14.7946 83.0507 14.7946C81.7284 14.8035 80.4061 14.8005 79.0838 14.8005C79.0244 14.8005 78.965 14.7946 78.8758 14.7916V10.5336C82.0255 10.495 85.1693 10.4593 88.3576 10.4207C88.3635 10.5574 88.3754 10.6762 88.3754 10.7921C88.3784 13.2316 88.3903 15.6711 88.3724 18.1107C88.3724 18.384 88.2744 18.702 88.111 18.9189C86.5183 21.091 84.3848 22.5024 81.8205 23.2928C80.8815 23.581 79.9277 23.7771 78.9412 23.8098C78.0795 23.8395 77.2119 23.9435 76.362 23.8692C73.5867 23.6226 71.0908 22.645 68.9543 20.8384C67.4657 19.5785 66.393 18.0156 65.6977 16.203C65.3292 15.2462 65.0232 14.2627 65.0053 13.2257C64.9845 12.1886 64.8687 11.1308 65.0291 10.1176C65.4927 7.1967 66.8625 4.75421 69.1802 2.86142C70.4876 1.79172 71.9673 1.04887 73.566 0.561559C74.4158 0.303048 75.322 0.213906 76.2075 0.0891068C76.7037 0.0177931 77.2119 -0.00300667 77.714 0.00887894C80.6587 0.083164 83.4102 0.781443 85.7903 2.59994C86.3519 3.03079 86.8541 3.54187 87.4454 4.06781L87.4365 4.06187Z" fill="white"/>
<path id="Vector_2" d="M33.4817 20.2917C34.1444 18.9011 34.807 17.5194 35.4874 16.0932C35.6063 16.1704 35.743 16.2477 35.8618 16.3398C37.3475 17.5194 38.9788 18.4317 40.7854 19.014C41.7571 19.329 42.7466 19.5935 43.7836 19.5162C44.4076 19.4687 45.0227 19.3676 45.5961 19.0764C47.0313 18.3485 47.0016 16.3665 45.9557 15.591C45.3436 15.1364 44.6334 14.7798 43.9203 14.5035C42.9813 14.141 41.9799 13.9448 41.035 13.5942C39.9029 13.1752 38.756 12.7503 37.6982 12.1769C36.0579 11.2884 35.1279 9.85619 34.8723 7.99312C34.4415 4.8583 35.9064 2.19295 38.8362 0.897419C39.9 0.424966 41.0113 0.104055 42.1879 0.0802835C43.1655 0.0594837 44.152 0.00302712 45.1207 0.0921691C46.443 0.213997 47.7623 0.419023 48.9924 0.962789C49.9314 1.37581 50.8615 1.81558 51.7945 2.23752C52.1362 2.39203 52.1659 2.62083 52.0144 2.93877C51.4498 4.13922 50.8912 5.34263 50.3444 6.54902C50.2315 6.80159 50.1305 6.84913 49.8809 6.70056C48.2971 5.75566 46.5856 5.10789 44.7909 4.71567C44.0124 4.5463 43.1893 4.51658 42.39 4.5255C41.4391 4.53441 40.6547 5.18218 40.42 6.04388C40.2536 6.65599 40.4081 7.23839 40.8389 7.65735C41.2609 8.07038 41.7541 8.47746 42.2949 8.69734C43.6231 9.23517 44.9959 9.66305 46.3479 10.1385C47.8098 10.6555 49.2688 11.1695 50.4455 12.2452C51.5062 13.2168 52.0827 14.4024 52.2491 15.8257C52.359 16.7736 52.362 17.7096 52.1302 18.6248C51.4914 21.1683 49.7264 22.6273 47.3195 23.4147C45.6615 23.9555 43.9351 24.0951 42.2206 23.9287C39.1452 23.6316 36.3551 22.5233 33.8977 20.6364C33.77 20.5384 33.6452 20.4403 33.5174 20.3423C33.5085 20.3363 33.5025 20.3215 33.4788 20.2858L33.4817 20.2917Z" fill="white"/>
<path id="Vector_3" d="M30.136 23.6702C29.9309 23.6702 29.8002 23.6702 29.6694 23.6702C28.1481 23.6702 26.6297 23.6672 25.1083 23.685C24.8261 23.688 24.6626 23.6018 24.5081 23.3671C21.5189 18.8238 18.5208 14.2865 15.5226 9.7462C15.3057 9.41638 15.0888 9.08952 14.863 8.76564C14.8273 8.71215 14.759 8.68244 14.649 8.60221V23.6642C14.3192 23.6642 14.025 23.6642 13.7338 23.6642C12.5215 23.6642 11.3121 23.6642 10.0998 23.6672C9.87992 23.6672 9.77295 23.6345 9.77295 23.3641C9.78483 16.1109 9.78483 8.85478 9.78781 1.60159C9.78781 1.25691 9.79969 0.912228 9.77889 0.567546C9.76701 0.347662 9.85021 0.291206 10.0552 0.294177C11.4756 0.30012 12.8959 0.294177 14.3192 0.306063C14.4262 0.306063 14.5747 0.395205 14.6371 0.487318C17.9532 5.41984 21.2604 10.3583 24.5676 15.2938C26.3504 17.9502 28.1332 20.6096 29.9131 23.2661C29.9844 23.373 30.0349 23.4919 30.133 23.6702H30.136Z" fill="white"/>
<path id="Vector_4" d="M100.894 14.4411C100.846 14.3252 100.748 14.2004 100.763 14.0904C100.894 13.1931 101.048 12.3016 101.191 11.4073C101.248 11.0596 101.265 10.703 101.357 10.3643C101.387 10.2573 101.598 10.1266 101.726 10.1266C103.443 10.1117 105.161 10.1058 106.878 10.1325C107.268 10.1385 107.327 9.99287 107.327 9.66601C107.318 6.63519 107.318 3.60436 107.315 0.576502C107.315 0.505188 107.315 0.430903 107.315 0.326904H112.521V23.6673H107.351C107.351 23.6405 107.339 23.6257 107.312 23.6227C107.315 22.5411 107.321 21.4595 107.324 20.3779C107.327 18.5564 107.33 16.735 107.333 14.9135C107.333 14.7679 107.333 14.6253 107.333 14.5124C107.268 14.4648 107.247 14.4381 107.229 14.4381C105.143 14.4381 103.057 14.4411 100.974 14.444C100.947 14.444 100.924 14.444 100.897 14.4411H100.894Z" fill="white"/>
<path id="Vector_5" d="M136.111 0.371407C136.209 0.341693 136.307 0.288208 136.408 0.288208C138.262 0.288208 140.113 0.297122 141.968 0.291179C142.202 0.291179 142.315 0.386264 142.428 0.570491C143.843 2.8347 145.257 5.09593 146.683 7.35123C147.013 7.87122 147.376 8.37042 147.735 8.86664C148.255 9.58572 148.659 10.3613 148.796 11.2408C148.906 11.9391 148.701 12.6076 148.341 13.2079C147.792 14.126 147.218 15.0293 146.642 15.9297C145.052 18.4316 143.459 20.9305 141.858 23.4265C141.786 23.5394 141.617 23.6583 141.492 23.6583C139.614 23.6731 137.736 23.6672 135.858 23.6642C135.766 23.6642 135.674 23.6345 135.555 23.6167C136.242 22.5856 136.91 21.5902 137.57 20.5918C139.483 17.6976 141.391 14.8005 143.308 11.9094C143.421 11.74 143.409 11.6182 143.299 11.4488C141.02 7.94253 138.744 4.43034 136.47 0.921116C136.364 0.757689 136.251 0.600205 136.141 0.439749C136.132 0.41895 136.12 0.395178 136.111 0.374379V0.371407Z" fill="white"/>
<path id="Vector_6" d="M61.3327 0.380299C61.3387 0.650697 61.3446 0.921094 61.3446 1.19149C61.3446 8.54571 61.3476 15.8999 61.3476 23.2512C61.3476 23.3819 61.3327 23.5127 61.3268 23.6612H56.1238C56.109 23.5899 56.0793 23.5216 56.0793 23.4532C56.0793 15.9029 56.0793 8.35257 56.0852 0.802238C56.0852 0.751724 56.103 0.698239 56.0852 0.65664C55.9366 0.288186 56.1714 0.288186 56.4269 0.288186C57.663 0.288186 58.8991 0.285214 60.1352 0.288186C60.5156 0.288186 60.8989 0.308986 61.2792 0.3179C61.2971 0.3387 61.3119 0.359499 61.3297 0.383271L61.3327 0.380299Z" fill="white"/>
<path id="Vector_7" d="M97.5124 0.454681C97.5095 6.79565 97.5065 13.1366 97.5035 19.4806C97.5035 20.785 97.5095 22.0894 97.5095 23.3969C97.5095 23.4801 97.4857 23.5662 97.4738 23.6494C97.45 23.6583 97.4292 23.6673 97.4055 23.6762C95.7742 23.6762 94.1458 23.6673 92.5145 23.6762C92.2828 23.6762 92.1966 23.6375 92.1966 23.3761C92.2025 16.3487 92.2025 9.32134 92.1996 2.29101C92.1996 1.65215 92.1996 1.0133 92.1996 0.386338C92.262 0.350682 92.2917 0.317996 92.3244 0.317996C94.0389 0.312053 95.7534 0.312053 97.4708 0.309082C97.4827 0.356624 97.4976 0.407138 97.5095 0.454681H97.5124Z" fill="white"/>
<path id="Vector_8" d="M127.238 23.6018C127.197 23.6226 127.155 23.6613 127.114 23.6613C125.47 23.6672 123.827 23.6702 122.184 23.6731C122.148 23.6731 122.113 23.6583 122.056 23.6464C122.05 23.5543 122.038 23.4592 122.038 23.3671C122.038 18.1196 122.038 12.8721 122.032 7.62461C122.032 7.37502 122.101 7.21456 122.315 7.08679C123.132 6.59948 123.976 6.35286 124.953 6.49251C125.69 6.59651 126.389 6.77182 127.033 7.13136C127.161 7.20268 127.295 7.40473 127.298 7.54736C127.304 12.8691 127.295 18.1909 127.286 23.5097C127.271 23.5424 127.256 23.5721 127.244 23.6048L127.238 23.6018Z" fill="white"/>
<path id="Vector_9" d="M115.433 4.68291C115.388 4.58188 115.302 4.48382 115.302 4.3828C115.29 3.09024 115.302 1.79768 115.281 0.505118C115.278 0.225807 115.382 0.175293 115.626 0.175293C121.174 0.178264 126.721 0.175293 132.272 0.175293C132.875 0.175293 133.478 0.175293 134.126 0.175293V4.66508C133.814 4.66508 133.523 4.66508 133.232 4.66508C127.449 4.66508 121.667 4.66508 115.882 4.66508C115.76 4.66508 115.635 4.67696 115.513 4.68291C115.486 4.68291 115.463 4.68291 115.436 4.68291H115.433Z" fill="white"/>
<path id="Vector_10" d="M5.29206 15.5285C5.29206 18.1047 5.28612 20.678 5.29801 23.2542C5.29801 23.5721 5.22669 23.6731 4.89092 23.6702C3.38442 23.6553 1.87495 23.6613 0.368454 23.6761C0.0623994 23.6791 0.0029714 23.5691 0.0059428 23.2898C0.0089142 18.4464 0.0059428 13.606 0 8.76265C0 8.51602 0.0564566 8.39122 0.329825 8.33774C1.90764 8.02871 3.47951 7.69294 5.05435 7.38095C5.12269 7.36609 5.25046 7.47009 5.29504 7.54735C5.33664 7.6246 5.30395 7.74049 5.30395 7.83854C5.30395 10.3999 5.30395 12.9642 5.30395 15.5256H5.29206V15.5285Z" fill="white"/>
<path id="Vector_11" d="M30.1538 0.377383V18.3752C27.8599 17.0618 26.6773 15.0145 25.6759 12.8186C25.3966 12.2065 25.3045 11.5855 25.3074 10.9169C25.3253 7.51766 25.3164 4.1154 25.3164 0.716122C25.3164 0.585381 25.3164 0.451668 25.3164 0.312012H30.1241C30.136 0.332812 30.1449 0.356583 30.1568 0.377383H30.1538Z" fill="white"/>
<path id="Vector_12" d="M151.479 13.6061C153.639 16.9578 155.773 20.2709 157.936 23.6286C157.799 23.6405 157.698 23.6583 157.597 23.6583C155.817 23.6583 154.04 23.6464 152.26 23.6613C151.925 23.6613 151.708 23.5573 151.53 23.278C150.516 21.6883 149.488 20.1105 148.478 18.5208C148.415 18.4197 148.401 18.2177 148.46 18.1256C149.405 16.6696 150.365 15.2225 151.324 13.7754C151.357 13.7249 151.405 13.6863 151.482 13.6061H151.479Z" fill="#eb3d29"/>
<path id="Vector_13" d="M151.443 9.241C151.304 9.07163 151.191 8.94683 151.093 8.81015C150.225 7.61268 149.372 6.40629 148.49 5.2207C148.291 4.9503 148.404 4.7631 148.534 4.5551C149.209 3.48243 149.889 2.41272 150.567 1.34005C150.692 1.14394 150.843 0.956739 150.935 0.745769C151.102 0.362459 151.387 0.294116 151.767 0.297088C153.508 0.311945 155.25 0.303031 156.991 0.306002C157.071 0.306002 157.154 0.320859 157.3 0.332745C155.336 3.31603 153.402 6.25772 151.44 9.241H151.443Z" fill="#eb3d29"/>
<path id="Vector_14" d="M5.22074 0.365536C5.24154 0.407135 5.2772 0.451706 5.2772 0.493306C5.28017 1.66404 5.2772 2.8318 5.2772 4.03522C5.17914 4.05007 5.08703 4.07384 4.99491 4.07384C3.47356 4.07384 1.95517 4.0679 0.433814 4.08276C0.103988 4.08573 0.00890348 3.9847 0.0148463 3.66379C0.0356461 2.59409 0.0267319 1.52141 0.0326747 0.448735C0.0802171 0.404164 0.124788 0.359593 0.17233 0.317993C0.243644 0.317993 0.317929 0.317993 0.389243 0.317993C0.415985 0.317993 0.442728 0.317993 0.469471 0.317993C0.543756 0.317993 0.615069 0.317993 0.689354 0.317993C0.796325 0.335822 0.900324 0.371478 1.00729 0.371478C2.40979 0.371478 3.81527 0.371478 5.21777 0.368507L5.22074 0.365536Z" fill="#eb3d29"/>
<path id="Vector_15" d="M5.22074 0.365461C3.81824 0.365461 2.41276 0.371404 1.01026 0.368433C0.903291 0.368433 0.796321 0.332776 0.692322 0.314948C2.14831 0.309005 3.60429 0.300091 5.06325 0.297119C5.11674 0.297119 5.17022 0.34169 5.22371 0.365461H5.22074Z" fill="#eb3d29"/>
<path id="Vector_16" d="M0.1753 0.314941C0.127758 0.359512 0.0831869 0.404083 0.0356445 0.445683C0.0831869 0.401112 0.127758 0.356541 0.1753 0.314941Z" fill="#eb3d29"/>
<path id="Vector_17" d="M61.3327 0.380312C61.3149 0.359512 61.3 0.338713 61.2822 0.314941C61.3 0.335741 61.3149 0.356541 61.3327 0.380312Z" fill="#B5B5B5"/>
<path id="Vector_18" d="M100.894 14.441C100.921 14.441 100.944 14.441 100.971 14.444C100.944 14.444 100.921 14.444 100.894 14.441Z" fill="white"/>
<path id="Vector_19" d="M127.238 23.6018C127.253 23.5691 127.268 23.5394 127.28 23.5067C127.265 23.5394 127.25 23.5691 127.238 23.6018Z" fill="white"/>
<path id="Vector_20" d="M107.312 23.6227C107.339 23.6227 107.354 23.6375 107.351 23.6673C107.333 23.6732 107.318 23.6762 107.3 23.6821C107.303 23.6643 107.309 23.6435 107.312 23.6257V23.6227Z" fill="white"/>
</g>
<defs>
<clipPath id="clip0_103_811">
<rect width="157.939" height="24" fill="white"/>
</clipPath>
</defs>
</svg>
