<svg width="76" height="32" viewBox="0 0 76 32" fill="none" xmlns="http://www.w3.org/2000/svg">
<g id="Layer_1" clip-path="url(#clip0_351_809)">
<path id="Vector" d="M40.9999 31.9807C40.7191 31.9807 40.543 31.9807 40.3651 31.9807C38.2965 31.9843 36.2297 31.9755 34.1611 31.9983C33.7774 32.0018 33.5524 31.8825 33.3448 31.5634C29.2774 25.3489 25.1979 19.1432 21.1218 12.934C20.827 12.4851 20.5305 12.0362 20.2253 11.5926C20.1764 11.5207 20.0822 11.4803 19.9357 11.3681V31.9702C19.4857 31.9702 19.0881 31.9702 18.6887 31.9702C17.0404 31.9702 15.3939 31.9685 13.7457 31.9755C13.4492 31.9755 13.3009 31.9299 13.3027 31.5617C13.3184 21.6385 13.3184 11.7171 13.3219 1.79388C13.3219 1.32219 13.3376 0.850491 13.3114 0.378793C13.294 0.0789414 13.4091 0.00354004 13.6864 0.00354004C15.6189 0.0123076 17.5532 0.00354004 19.4857 0.0193217C19.6322 0.0193217 19.8328 0.140315 19.9165 0.266568C24.4269 7.01412 28.9269 13.7669 33.4285 20.5197C35.8529 24.1548 38.2773 27.7898 40.6999 31.4249C40.7959 31.5704 40.8674 31.7317 40.9999 31.9772V31.9807Z" fill="#374151"/>
<path id="Vector_2" d="M7.19989 20.8424C7.19989 24.3652 7.19291 27.8863 7.21035 31.4091C7.2121 31.844 7.11268 31.9825 6.65746 31.9772C4.60632 31.9544 2.55345 31.9632 0.502318 31.986C0.0854638 31.9913 0.00697664 31.8405 0.00697664 31.4582C0.0139533 24.8369 0.0087208 18.2138 0 11.5908C0 11.2541 0.076743 11.084 0.448249 11.0104C2.59356 10.586 4.7319 10.1301 6.87548 9.70225C6.96966 9.68296 7.14233 9.82149 7.20163 9.93021C7.25745 10.0337 7.21559 10.1932 7.21559 10.3283C7.21559 13.8335 7.21559 17.3388 7.21559 20.8441H7.20163L7.19989 20.8424Z" fill="#374151"/>
<path id="Vector_3" d="M41.0244 0.121046V24.7387C37.9041 22.9414 36.296 20.1427 34.9338 17.1372C34.5535 16.299 34.428 15.4503 34.4332 14.5367C34.4559 9.8864 34.4437 5.23607 34.4437 0.585729C34.4437 0.405116 34.4437 0.224503 34.4437 0.0316162H40.9825C40.9965 0.0614261 41.0104 0.0929894 41.0244 0.122799V0.121046Z" fill="#374151"/>
<path id="Vector_4" d="M46.3057 0.112225C46.44 0.0736479 46.5743 0 46.7086 0C49.2289 0 51.7509 0.0140282 54.2712 0.00526056C54.5904 0.00526056 54.7439 0.136775 54.8991 0.385775C56.8212 3.48249 58.7485 6.5757 60.6897 9.66015C61.1362 10.3703 61.6316 11.0524 62.1217 11.7328C62.8298 12.7165 63.3792 13.7792 63.5641 14.9803C63.7124 15.936 63.4351 16.8478 62.9449 17.6685C62.1967 18.9222 61.4153 20.1585 60.6339 21.393C58.4712 24.8141 56.3049 28.2334 54.1265 31.6458C54.0288 31.8001 53.8003 31.9632 53.6311 31.9649C51.0759 31.9842 48.5207 31.979 45.9656 31.9737C45.84 31.9737 45.7144 31.9334 45.5522 31.9071C46.4871 30.4972 47.3958 29.1365 48.294 27.7688C50.8963 23.8111 53.4933 19.8481 56.0991 15.8922C56.2526 15.6589 56.2369 15.4924 56.0886 15.2609C52.9858 10.465 49.8934 5.66212 46.7975 0.862732C46.6527 0.638282 46.4975 0.422598 46.3475 0.203408C46.3336 0.173599 46.3196 0.142035 46.3057 0.112225Z" fill="#374151"/>
<path id="Vector_5" d="M67.2129 18.2138C70.1519 22.801 73.0559 27.3321 75.9983 31.9246C75.8134 31.9403 75.6756 31.9631 75.5361 31.9631C73.1152 31.9631 70.696 31.9491 68.2751 31.9684C67.8164 31.9719 67.5217 31.8281 67.2792 31.4459C65.8996 29.2732 64.5008 27.1129 63.1264 24.9368C63.0409 24.8 63.02 24.5212 63.1002 24.3949C64.3857 22.4029 65.6938 20.425 66.9984 18.4453C67.0438 18.3769 67.1083 18.3225 67.2112 18.212L67.2129 18.2138Z" fill="#EA3E28"/>
<path id="Vector_6" d="M67.1641 12.2413C66.9757 12.0098 66.8222 11.838 66.6879 11.6504C65.5089 10.0126 64.3455 8.36425 63.1473 6.74049C62.8752 6.37225 63.0287 6.11448 63.2066 5.83041C64.124 4.36272 65.0502 2.89853 65.9728 1.43434C66.1437 1.1643 66.3496 0.910036 66.4751 0.618951C66.7001 0.0964022 67.0891 0.00171205 67.6071 0.00521909C69.9757 0.0262613 72.3442 0.0157402 74.7145 0.0174937C74.8244 0.0174937 74.9361 0.0367825 75.1366 0.0560712C72.4646 4.13827 69.8344 8.15909 67.1641 12.2395V12.2413Z" fill="#EA3E28"/>
<path id="Vector_7" d="M7.10408 0.105175C7.13199 0.163041 7.18257 0.222661 7.18257 0.280527C7.18606 1.87974 7.18606 3.47895 7.18606 5.12375C7.0535 5.14304 6.92792 5.1746 6.8006 5.1746C4.73203 5.17811 2.6652 5.16408 0.596623 5.18688C0.148374 5.19214 0.0175616 5.05361 0.0262824 4.61172C0.054189 3.14753 0.043724 1.68159 0.0489565 0.215647C0.111746 0.156027 0.174536 0.0946539 0.237326 0.0350342C0.336743 0.0350342 0.434416 0.0350342 0.533833 0.0350342C0.57046 0.0350342 0.605343 0.0350342 0.641971 0.0350342C0.741388 0.0350342 0.840805 0.0367877 0.940222 0.0385412C1.08499 0.064844 1.22975 0.112189 1.37452 0.112189C3.28437 0.113943 5.19423 0.110436 7.10408 0.106929V0.105175Z" fill="#EA3E28"/>
<path id="Vector_8" d="M7.10398 0.105266C5.19413 0.108773 3.28427 0.11228 1.37442 0.110526C1.22966 0.110526 1.08489 0.0631812 0.940125 0.0368784C2.92149 0.0281108 4.90285 0.0175897 6.88596 0.0123291C6.95922 0.0123291 7.03073 0.0719488 7.10398 0.105266Z" fill="#EA3E28"/>
</g>
<defs>
<clipPath id="clip0_351_809">
<rect width="76" height="32" fill="white"/>
</clipPath>
</defs>
</svg>
