<svg width="76" height="32" viewBox="0 0 76 32" fill="none" xmlns="http://www.w3.org/2000/svg">
<g id="Layer_1" clip-path="url(#clip0_274_4014)">
<path id="Vector" d="M40.9999 31.9806C40.7191 31.9806 40.543 31.9806 40.3651 31.9806C38.2965 31.9841 36.2297 31.9754 34.1611 31.9982C33.7774 32.0017 33.5524 31.8824 33.3448 31.5633C29.2774 25.3488 25.1979 19.1431 21.1218 12.9339C20.827 12.485 20.5305 12.0361 20.2253 11.5924C20.1764 11.5205 20.0822 11.4802 19.9357 11.368V31.9701C19.4857 31.9701 19.0881 31.9701 18.6887 31.9701C17.0404 31.9701 15.3939 31.9683 13.7457 31.9754C13.4492 31.9754 13.3009 31.9298 13.3027 31.5615C13.3184 21.6384 13.3184 11.7169 13.3219 1.79376C13.3219 1.32207 13.3376 0.850368 13.3114 0.378671C13.294 0.0788194 13.4091 0.00341797 13.6864 0.00341797C15.6189 0.0121856 17.5532 0.00341797 19.4857 0.0191997C19.6322 0.0191997 19.8328 0.140193 19.9165 0.266446C24.4269 7.01399 28.9269 13.7668 33.4285 20.5196C35.8529 24.1547 38.2773 27.7897 40.6999 31.4248C40.7959 31.5703 40.8674 31.7316 40.9999 31.9771V31.9806Z" fill="white"/>
<path id="Vector_2" d="M7.19989 20.8424C7.19989 24.3652 7.19291 27.8863 7.21035 31.4091C7.2121 31.844 7.11268 31.9825 6.65746 31.9772C4.60632 31.9544 2.55345 31.9632 0.502318 31.986C0.0854638 31.9913 0.00697664 31.8405 0.00697664 31.4582C0.0139533 24.8369 0.0087208 18.2138 0 11.5908C0 11.2541 0.076743 11.084 0.448249 11.0104C2.59356 10.586 4.7319 10.1301 6.87548 9.70225C6.96966 9.68296 7.14233 9.82149 7.20163 9.93021C7.25745 10.0337 7.21559 10.1932 7.21559 10.3283C7.21559 13.8335 7.21559 17.3388 7.21559 20.8441H7.20163L7.19989 20.8424Z" fill="white"/>
<path id="Vector_3" d="M41.0244 0.120924V24.7386C37.9041 22.9412 36.296 20.1426 34.9338 17.1371C34.5535 16.2989 34.428 15.4502 34.4332 14.5366C34.4559 9.88628 34.4437 5.23594 34.4437 0.585607C34.4437 0.404994 34.4437 0.224381 34.4437 0.0314941H40.9825C40.9965 0.061304 41.0104 0.0928674 41.0244 0.122677V0.120924Z" fill="white"/>
<path id="Vector_4" d="M46.3057 0.112225C46.44 0.0736479 46.5743 0 46.7086 0C49.2289 0 51.7509 0.0140282 54.2712 0.00526056C54.5904 0.00526056 54.7439 0.136775 54.8991 0.385775C56.8212 3.48249 58.7485 6.5757 60.6897 9.66015C61.1362 10.3703 61.6316 11.0524 62.1217 11.7328C62.8298 12.7165 63.3792 13.7792 63.5641 14.9803C63.7124 15.936 63.4351 16.8478 62.9449 17.6685C62.1967 18.9222 61.4153 20.1585 60.6339 21.393C58.4712 24.8141 56.3049 28.2334 54.1265 31.6458C54.0288 31.8001 53.8003 31.9632 53.6311 31.9649C51.0759 31.9842 48.5207 31.979 45.9656 31.9737C45.84 31.9737 45.7144 31.9334 45.5522 31.9071C46.4871 30.4972 47.3958 29.1365 48.294 27.7688C50.8963 23.8111 53.4933 19.8481 56.0991 15.8922C56.2526 15.6589 56.2369 15.4924 56.0886 15.2609C52.9858 10.465 49.8934 5.66212 46.7975 0.862732C46.6527 0.638282 46.4975 0.422598 46.3475 0.203408C46.3336 0.173599 46.3196 0.142035 46.3057 0.112225Z" fill="white"/>
<path id="Vector_5" d="M67.2129 18.2139C70.1519 22.8011 73.0559 27.3322 75.9983 31.9247C75.8134 31.9405 75.6756 31.9633 75.5361 31.9633C73.1152 31.9633 70.696 31.9492 68.2751 31.9685C67.8164 31.972 67.5217 31.8282 67.2792 31.446C65.8996 29.2734 64.5008 27.113 63.1264 24.9369C63.0409 24.8001 63.02 24.5213 63.1002 24.3951C64.3857 22.4031 65.6938 20.4251 66.9984 18.4454C67.0438 18.377 67.1083 18.3226 67.2112 18.2122L67.2129 18.2139Z" fill="#eb3d29"/>
<path id="Vector_6" d="M67.1641 12.2413C66.9757 12.0098 66.8222 11.838 66.6879 11.6504C65.5089 10.0126 64.3455 8.36425 63.1473 6.74049C62.8752 6.37225 63.0287 6.11448 63.2066 5.83041C64.124 4.36272 65.0502 2.89853 65.9728 1.43434C66.1437 1.1643 66.3496 0.910036 66.4751 0.618951C66.7001 0.0964022 67.0891 0.00171205 67.6071 0.00521909C69.9757 0.0262613 72.3442 0.0157402 74.7145 0.0174937C74.8244 0.0174937 74.9361 0.0367825 75.1366 0.0560712C72.4646 4.13827 69.8344 8.15909 67.1641 12.2395V12.2413Z" fill="#eb3d29"/>
<path id="Vector_7" d="M7.10408 0.105297C7.13199 0.163163 7.18257 0.222783 7.18257 0.280649C7.18606 1.87986 7.18606 3.47907 7.18606 5.12387C7.0535 5.14316 6.92792 5.17473 6.8006 5.17473C4.73203 5.17823 2.6652 5.1642 0.596623 5.187C0.148374 5.19226 0.0175616 5.05373 0.0262824 4.61185C0.054189 3.14766 0.043724 1.68171 0.0489565 0.215769C0.111746 0.156149 0.174536 0.094776 0.237326 0.0351562C0.336743 0.0351562 0.434416 0.0351562 0.533833 0.0351562C0.57046 0.0351562 0.605343 0.0351562 0.641971 0.0351562C0.741388 0.0351562 0.840805 0.0369098 0.940222 0.0386633C1.08499 0.0649661 1.22975 0.112311 1.37452 0.112311C3.28437 0.114065 5.19423 0.110558 7.10408 0.107051V0.105297Z" fill="#eb3d29"/>
<path id="Vector_8" d="M7.10398 0.105144C5.19413 0.108651 3.28427 0.112158 1.37442 0.110404C1.22966 0.110404 1.08489 0.0630591 0.940125 0.0367563C2.92149 0.0279887 4.90285 0.0174676 6.88596 0.012207C6.95922 0.012207 7.03073 0.0718267 7.10398 0.105144Z" fill="#eb3d29"/>
</g>
<defs>
<clipPath id="clip0_274_4014">
<rect width="76" height="32" fill="white"/>
</clipPath>
</defs>
</svg>
