<svg width="64" height="64" viewBox="0 0 64 64" fill="none" xmlns="http://www.w3.org/2000/svg">
<g id="Group">
<g id="Group_2">
<path id="Path" d="M10.6667 31.7493V21.576C10.6667 18.248 12.728 15.2666 15.84 14.0906L38.1147 5.67998C41.6054 4.36531 45.3334 6.94131 45.3334 10.672V19.6053" stroke="#9CA3AF" stroke-width="3" stroke-linecap="round" stroke-linejoin="round"/>
<path id="Path_2" d="M45.9973 37.6027C45.6293 37.6054 45.3333 37.904 45.3333 38.272C45.3333 38.64 45.632 38.9387 46 38.936C46.368 38.936 46.6666 38.6374 46.6666 38.2694C46.6666 37.9014 46.368 37.6027 45.9973 37.6027" stroke="#9CA3AF" stroke-width="3" stroke-linecap="round" stroke-linejoin="round"/>
<path id="Path_3" d="M28.432 56H48C52.4 56 56 52.4 56 48V27.6027C56 23.184 52.4187 19.6027 48 19.6027H16C13.0534 19.6027 10.6667 21.9893 10.6667 24.936V32.6853" stroke="#9CA3AF" stroke-width="3" stroke-linecap="round" stroke-linejoin="round"/>
<path id="Path_4" d="M20 58.6666C11.9013 58.6666 5.33331 52.0986 5.33331 44C5.33331 35.9013 11.9013 29.3333 20 29.3333C28.1013 29.3333 34.6666 35.9013 34.6666 44C34.6666 52.0986 28.1013 58.6666 20 58.6666" stroke="#9CA3AF" stroke-width="3" stroke-linecap="round" stroke-linejoin="round"/>
<path id="Path_5" d="M20 38.152V49.8506" stroke="#9CA3AF" stroke-width="3" stroke-linecap="round" stroke-linejoin="round"/>
<path id="Path_6" d="M25.848 44H14.152" stroke="#9CA3AF" stroke-width="3" stroke-linecap="round" stroke-linejoin="round"/>
</g>
</g>
</svg>
