<svg width="24" height="24" viewBox="0 0 24 24" fill="none" xmlns="http://www.w3.org/2000/svg">
<g id="Group">
<path id="Path" d="M6.49768 2.49609L7.99831 3.99672L6.49768 5.49734" stroke="#4B5563" stroke-width="2" stroke-linecap="round" stroke-linejoin="round"/>
<path id="Path_2" d="M7.9983 3.99707H5.99747C4.33992 3.99707 2.99622 5.34078 2.99622 6.99832" stroke="#4B5563" stroke-width="2" stroke-linecap="round" stroke-linejoin="round"/>
<path id="Path_3" d="M17.5023 21.5042L16.0016 20.0036L17.5023 18.5029" stroke="#4B5563" stroke-width="2" stroke-linecap="round" stroke-linejoin="round"/>
<path id="Path_4" d="M16.0016 20.0032H18.0025C19.66 20.0032 21.0037 18.6595 21.0037 17.002" stroke="#4B5563" stroke-width="2" stroke-linecap="round" stroke-linejoin="round"/>
<path id="Path_5" d="M9.49893 20.0036C6.4601 20.0036 3.99664 17.5401 3.99664 14.5013C3.99664 11.4625 6.4601 8.99902 9.49893 8.99902C12.5378 8.99902 15.0012 11.4625 15.0012 14.5013C15.0012 15.9606 14.4215 17.3601 13.3896 18.392C12.3578 19.4239 10.9582 20.0036 9.49893 20.0036" stroke="#4B5563" stroke-width="2" stroke-linecap="round" stroke-linejoin="round"/>
<path id="Path_6" d="M8.6875 13.4794L9.49883 12.666V15.9153" stroke="#4B5563" stroke-width="2" stroke-linecap="round" stroke-linejoin="round"/>
<path id="Path_7" d="M8.68964 15.9172H10.3081" stroke="#4B5563" stroke-width="2" stroke-linecap="round" stroke-linejoin="round"/>
<path id="Path_8" d="M10.6102 5.66041C12.759 3.51163 16.2429 3.51163 18.3916 5.66041C20.5404 7.80919 20.5404 11.2931 18.3916 13.4418" stroke="#4B5563" stroke-width="2" stroke-linecap="round" stroke-linejoin="round"/>
</g>
</svg>
