<svg width="66" height="66" viewBox="0 0 66 66" fill="none" xmlns="http://www.w3.org/2000/svg">
<g id="Group">
<path id="Path" fill-rule="evenodd" clip-rule="evenodd" d="M46.5941 33.3294L32.1968 44.8472C31.1353 45.6964 29.6051 45.6117 28.6439 44.6505L21.3496 37.3562C20.3884 36.395 20.3036 34.8647 21.1528 33.8032L32.6707 19.4059C37.9374 12.8224 45.9113 8.98999 54.3423 8.98999V8.98999C55.8156 8.98999 57.01 10.1844 57.01 11.6578V11.6578C57.01 20.0887 53.1776 28.0626 46.5941 33.3294Z" stroke="#eb3d29" stroke-width="3" stroke-linecap="round" stroke-linejoin="round"/>
<path id="Path_2" d="M43.6712 35.6678V47.358C43.6712 48.3685 43.1002 49.2923 42.1964 49.7442L35.7513 52.9668C35.0596 53.3127 34.2518 53.3414 33.5373 53.0454C32.8228 52.7494 32.2719 52.158 32.0274 51.4243L30.3323 46.339" stroke="#eb3d29" stroke-width="3" stroke-linecap="round" stroke-linejoin="round"/>
<path id="Path_3" d="M19.6611 35.6677L14.5759 33.9727C13.8422 33.7281 13.2508 33.1772 12.9548 32.4627C12.6589 31.7482 12.6876 30.9405 13.0334 30.2487L16.2561 23.8036C16.708 22.8998 17.6316 22.3289 18.642 22.3289H30.3322" stroke="#eb3d29" stroke-width="3" stroke-linecap="round" stroke-linejoin="round"/>
<path id="Path_4" fill-rule="evenodd" clip-rule="evenodd" d="M16.3267 55.9079L8.99005 57.01L10.0922 49.6734C10.4498 47.2934 12.3181 45.425 14.6981 45.0675V45.0675C16.418 44.8091 18.1585 45.3822 19.3882 46.612C20.618 47.8418 21.1912 49.5822 20.9327 51.3021V51.3021C20.5751 53.6821 18.7067 55.5504 16.3267 55.9079V55.9079Z" stroke="#eb3d29" stroke-width="3" stroke-linecap="round" stroke-linejoin="round"/>
</g>
</svg>
