<svg width="25" height="24" viewBox="0 0 25 24" fill="none" xmlns="http://www.w3.org/2000/svg">
<g id="Group">
<path id="Path" d="M3.5 12V6.5C3.5 5.11929 4.61929 4 6 4H19C20.3807 4 21.5 5.11929 21.5 6.5V9.5" stroke="#374151" stroke-width="1.5" stroke-linecap="round" stroke-linejoin="round"/>
<path id="Path_2" d="M21.5 14.5V17.5C21.5 18.8807 20.3807 20 19 20H11.5" stroke="#374151" stroke-width="1.5" stroke-linecap="round" stroke-linejoin="round"/>
<path id="Path_3" fill-rule="evenodd" clip-rule="evenodd" d="M20 9.5H21.5C22.0523 9.5 22.5 9.94772 22.5 10.5V13.5C22.5 14.0523 22.0523 14.5 21.5 14.5H20C18.6193 14.5 17.5 13.3807 17.5 12V12C17.5 10.6193 18.6193 9.5 20 9.5V9.5Z" stroke="#374151" stroke-width="1.5" stroke-linecap="round" stroke-linejoin="round"/>
<path id="Path_4" d="M4 17.5H8" stroke="#374151" stroke-width="1.5" stroke-linecap="round" stroke-linejoin="round"/>
<path id="Path_5" d="M6 19.5V15.5" stroke="#374151" stroke-width="1.5" stroke-linecap="round" stroke-linejoin="round"/>
</g>
</svg>
