<svg width="24" height="25" viewBox="0 0 24 25" fill="none" xmlns="http://www.w3.org/2000/svg">
<path d="M3 12.5V7C3 5.61929 4.11929 4.5 5.5 4.5H18.5C19.8807 4.5 21 5.61929 21 7V10" stroke="white" stroke-width="1.5" stroke-linecap="round" stroke-linejoin="round"/>
<path d="M21 15V18C21 19.3807 19.8807 20.5 18.5 20.5H11" stroke="white" stroke-width="1.5" stroke-linecap="round" stroke-linejoin="round"/>
<path fill-rule="evenodd" clip-rule="evenodd" d="M19.5 10H21C21.5523 10 22 10.4477 22 11V14C22 14.5523 21.5523 15 21 15H19.5C18.1193 15 17 13.8807 17 12.5V12.5C17 11.1193 18.1193 10 19.5 10V10Z" stroke="white" stroke-width="1.5" stroke-linecap="round" stroke-linejoin="round"/>
<path d="M3.5 18H7.5" stroke="white" stroke-width="1.5" stroke-linecap="round" stroke-linejoin="round"/>
<path d="M5.5 20V16" stroke="white" stroke-width="1.5" stroke-linecap="round" stroke-linejoin="round"/>
</svg>
