<svg width="28" height="28" viewBox="0 0 28 28" fill="none" xmlns="http://www.w3.org/2000/svg">
<path d="M23.3333 16.9167V20.4167C23.3333 22.0275 22.0275 23.3334 20.4167 23.3334H6.41667C4.80584 23.3334 3.5 22.0275 3.5 20.4167V7.58335C3.5 5.97252 4.80584 4.66669 6.41667 4.66669H20.4167C22.0275 4.66669 23.3333 5.97252 23.3333 7.58335V11.0834" stroke="#9CA3AF" stroke-width="1.5" stroke-linecap="round" stroke-linejoin="round"/>
<path fill-rule="evenodd" clip-rule="evenodd" d="M21.5833 11.0833H23.3333C23.9776 11.0833 24.5 11.6057 24.5 12.25V15.75C24.5 16.3943 23.9776 16.9167 23.3333 16.9167H21.5833C19.9725 16.9167 18.6666 15.6108 18.6666 14V14C18.6666 12.3892 19.9725 11.0833 21.5833 11.0833V11.0833Z" stroke="#9CA3AF" stroke-width="1.5" stroke-linecap="round" stroke-linejoin="round"/>
</svg>
