<svg width="65" height="65" viewBox="0 0 65 65" fill="none" xmlns="http://www.w3.org/2000/svg">
<path d="M21.6667 10.1667V6.66879C21.6667 5.90257 21.2905 5.18518 20.6602 4.74946C20.0299 4.31374 19.2259 4.21523 18.5091 4.48589L8.76364 8.16567C7.40146 8.68002 6.5 9.98398 6.5 11.44V13.6667" stroke="#374151" stroke-width="3" stroke-linecap="round" stroke-linejoin="round"/>
<path fill-rule="evenodd" clip-rule="evenodd" d="M24.5834 15.4167H26.3334C26.9777 15.4167 27.5 15.9391 27.5 16.5834V20.0834C27.5 20.7277 26.9777 21.2501 26.3334 21.2501H24.5834C22.9725 21.2501 21.6667 19.9442 21.6667 18.3334V18.3334C21.6667 16.7226 22.9725 15.4167 24.5834 15.4167V15.4167Z" stroke="#374151" stroke-width="3" stroke-linecap="round" stroke-linejoin="round"/>
<path d="M26.3333 21.2501V23.0001C26.3333 24.9331 24.7663 26.5001 22.8333 26.5001H10C8.067 26.5001 6.5 24.9331 6.5 23.0001V13.6667C6.5 11.7338 8.067 10.1667 10 10.1667H22.8333C24.7663 10.1667 26.3333 11.7338 26.3333 13.6667V15.4167" stroke="#374151" stroke-width="3" stroke-linecap="round" stroke-linejoin="round"/>
<path d="M53.6667 42.1667V38.6688C53.6667 37.9026 53.2905 37.1852 52.6602 36.7495C52.0299 36.3137 51.2259 36.2152 50.5091 36.4859L40.7636 40.1657C39.4015 40.68 38.5 41.984 38.5 43.44V45.6667" stroke="#374151" stroke-width="3" stroke-linecap="round" stroke-linejoin="round"/>
<path fill-rule="evenodd" clip-rule="evenodd" d="M56.5834 47.4167H58.3334C58.9777 47.4167 59.5 47.9391 59.5 48.5834V52.0834C59.5 52.7277 58.9777 53.2501 58.3334 53.2501H56.5834C54.9725 53.2501 53.6667 51.9442 53.6667 50.3334V50.3334C53.6667 48.7226 54.9725 47.4167 56.5834 47.4167V47.4167Z" stroke="#374151" stroke-width="3" stroke-linecap="round" stroke-linejoin="round"/>
<path d="M58.3333 53.2501V55.0001C58.3333 56.9331 56.7663 58.5001 54.8333 58.5001H42C40.067 58.5001 38.5 56.9331 38.5 55.0001V45.6667C38.5 43.7338 40.067 42.1667 42 42.1667H54.8333C56.7663 42.1667 58.3333 43.7338 58.3333 45.6667V47.4167" stroke="#374151" stroke-width="3" stroke-linecap="round" stroke-linejoin="round"/>
<path d="M10.5 45.5L14.5 41.5L18.5 45.5" stroke="#374151" stroke-width="3" stroke-linecap="round" stroke-linejoin="round"/>
<path d="M14.5 41.5V46.8333C14.5 51.252 18.0813 54.8333 22.5 54.8333" stroke="#374151" stroke-width="3" stroke-linecap="round" stroke-linejoin="round"/>
<path d="M54.5 19.8335L50.5 23.8335L46.5 19.8335" stroke="#374151" stroke-width="3" stroke-linecap="round" stroke-linejoin="round"/>
<path d="M50.5 23.8333V18.5C50.5 14.0813 46.9187 10.5 42.5 10.5" stroke="#374151" stroke-width="3" stroke-linecap="round" stroke-linejoin="round"/>
</svg>
