<svg width="40" height="40" viewBox="0 0 40 40" fill="none" xmlns="http://www.w3.org/2000/svg">
<rect width="40" height="40" rx="20" fill="#F3F4F6"/>
<path d="M12 19.906V16.091C12 14.843 12.773 13.725 13.94 13.284L22.293 10.13C23.602 9.63702 25 10.603 25 12.002V15.352" stroke="#6B7280" stroke-width="1.5" stroke-linecap="round" stroke-linejoin="round"/>
<path d="M25.249 22.1009C25.111 22.1019 25 22.2139 25 22.3519C25 22.4899 25.112 22.6019 25.25 22.6009C25.388 22.6009 25.5 22.4889 25.5 22.3509C25.5 22.2129 25.388 22.1009 25.249 22.1009" stroke="#6B7280" stroke-width="1.5" stroke-linecap="round" stroke-linejoin="round"/>
<path d="M18.662 29H26C27.65 29 29 27.65 29 26V18.351C29 16.694 27.657 15.351 26 15.351H14C12.895 15.351 12 16.246 12 17.351V20.257" stroke="#6B7280" stroke-width="1.5" stroke-linecap="round" stroke-linejoin="round"/>
<path d="M15.5 30C12.463 30 10 27.537 10 24.5C10 21.463 12.463 19 15.5 19C18.538 19 21 21.463 21 24.5C21 27.537 18.538 30 15.5 30" stroke="#6B7280" stroke-width="1.5" stroke-linecap="round" stroke-linejoin="round"/>
<path d="M15.5 24.5V22.5" stroke="#6B7280" stroke-width="1.5" stroke-linecap="round" stroke-linejoin="round"/>
<path d="M15.501 26.9699C15.578 26.9699 15.64 26.9079 15.639 26.8309C15.639 26.7539 15.577 26.6919 15.5 26.6919C15.423 26.6919 15.361 26.7539 15.361 26.8309C15.361 26.9079 15.423 26.9699 15.501 26.9699" stroke="#6B7280" stroke-width="1.5" stroke-linecap="round" stroke-linejoin="round"/>
</svg>
