<svg width="28" height="28" viewBox="0 0 28 28" fill="none" xmlns="http://www.w3.org/2000/svg">
<path d="M23.3333 16.9167V20.4167C23.3333 22.0276 22.0275 23.3334 20.4167 23.3334H6.41667C4.80584 23.3334 3.5 22.0276 3.5 20.4167V7.58341C3.5 5.97258 4.80584 4.66675 6.41667 4.66675H20.4167C22.0275 4.66675 23.3333 5.97258 23.3333 7.58341V11.0834" stroke="#6B7280" stroke-width="1.5" stroke-linecap="round" stroke-linejoin="round"/>
<path fill-rule="evenodd" clip-rule="evenodd" d="M21.5833 11.0833H23.3333C23.9776 11.0833 24.5 11.6056 24.5 12.2499V15.7499C24.5 16.3943 23.9776 16.9166 23.3333 16.9166H21.5833C19.9725 16.9166 18.6666 15.6107 18.6666 13.9999V13.9999C18.6666 12.3891 19.9725 11.0833 21.5833 11.0833V11.0833Z" stroke="#6B7280" stroke-width="1.5" stroke-linecap="round" stroke-linejoin="round"/>
</svg>
