<svg width="48" height="48" viewBox="0 0 48 48" fill="none" xmlns="http://www.w3.org/2000/svg">
<path d="M39.5556 28.861V34.6943C39.5556 37.3791 37.3792 39.5554 34.6944 39.5554H11.3611C8.67639 39.5554 6.5 37.3791 6.5 34.6943V13.3054C6.5 10.6207 8.67639 8.44434 11.3611 8.44434H34.6944C37.3792 8.44434 39.5556 10.6207 39.5556 13.3054V19.1388" stroke="#D1D5DB" stroke-width="1.5" stroke-linecap="round" stroke-linejoin="round"/>
<path fill-rule="evenodd" clip-rule="evenodd" d="M36.6389 19.1387H39.5555C40.6294 19.1387 41.5 20.0092 41.5 21.0831V26.9164C41.5 27.9903 40.6294 28.8609 39.5555 28.8609H36.6389C33.9542 28.8609 31.7778 26.6845 31.7778 23.9998V23.9998C31.7778 21.3151 33.9542 19.1387 36.6389 19.1387V19.1387Z" stroke="#D1D5DB" stroke-width="1.5" stroke-linecap="round" stroke-linejoin="round"/>
</svg>
